<svg xmlns="http://www.w3.org/2000/svg" width="474" height="474" style="shape-rendering:geometricPrecision;text-rendering:geometricPrecision;image-rendering:optimizeQuality;fill-rule:evenodd;clip-rule:evenodd"><path fill="#ae4145" d="M140.5 21.5a542 542 0 0 0-29 1q14.434-3.047 29-1" style="opacity:.12"/><path fill="#ae4148" d="M143.5 21.5q7.905.394 15 3-7.905-.394-15-3" style="opacity:.184"/><path fill="#b7363e" d="M353.5 21.5a246 246 0 0 0-35 2q17.333-4.4 35-2" style="opacity:.745"/><path fill="#d02429" d="M353.5 21.5h3l1 2a539 539 0 0 0-42 1.5q-10.664 6.471-23 8.5 11.614-8.172 26-10a246 246 0 0 1 35-2" style="opacity:1"/><path fill="#b4373d" d="M356.5 21.5q8.364.556 16 3a171 171 0 0 1-15-1z" style="opacity:.51"/><path fill="#b53a3c" d="M110.5 22.5q-.166.925-1 1.5a121 121 0 0 1-13 1.5q6.632-2.403 14-3" style="opacity:.78"/><path fill="#df1e27" d="M140.5 21.5h3q7.095 2.606 15 3l1 2a151.8 151.8 0 0 0-28-3l-12 .5q-2 1 0 2 4.108 2.84 8 0a128 128 0 0 1 16-.5v4a257 257 0 0 1-32-1 20.2 20.2 0 0 1 6-1.5q-2.166-1.596-5-1.5a92.6 92.6 0 0 1-17 2.5 25.5 25.5 0 0 0-9 4 18.4 18.4 0 0 1-6 .5v3q-4.473.694-9 1a50 50 0 0 1 7-2.5q1.128-1.005 1-2.5 7.95-4.209 17-6 6.53-.398 13-1.5.834-.575 1-1.5h1a542 542 0 0 1 29-1" style="opacity:1"/><path fill="#be3539" d="M158.5 24.5q9.25 1.248 17 6a234 234 0 0 1-16-4z" style="opacity:.722"/><path fill="#ed1b22" d="M357.5 23.5q7.473.83 15 1 5.752 6.837 15 6-.384 3.439 1 6.5 3.779-1.064 0-4l3-.5q5.458 3.39 12 5 7.313 6.87 17 10a116 116 0 0 1 8 9.5 63 63 0 0 1 8 4.5q2.808 6.815 9 11a34 34 0 0 0 2 7 36.6 36.6 0 0 1 7.5 10q1.006 1.128 2.5 1 4.176 5.857 6 13a246 246 0 0 1 6.5 27q.99 2.736 3.5 4v32q-2.39 1.272-3.5 4a147 147 0 0 0-4.5 21 4708 4708 0 0 1-95 1.5q-8.055 7.455-9 18.5h-3q.804 4.747-2.5 8l-1-1a10.3 10.3 0 0 1-1.5 4q-1.344-1.509-2 0 1.566 3.402.5 7a106 106 0 0 0-6.5 13 264 264 0 0 1-8.5-16 774 774 0 0 0-9.5-24.5q-.504-1.545-2-1.5a580 580 0 0 1-5-6q-8.39-4.453-16 1.5a3.94 3.94 0 0 1 1 2 101.7 101.7 0 0 0-4 18.5 49.7 49.7 0 0 0-5 20q-5.487-.264-3 4.5a116.4 116.4 0 0 1-6 27 59.7 59.7 0 0 0-1 11.5 5.73 5.73 0 0 0-1 3q-2.445 2.289-2.5 6-2.349.841-4-2-.265-7.212-3.5-13.5 1.784-4.649-2.5-7.5a32.5 32.5 0 0 1-.5-8 12.9 12.9 0 0 0 5-.5l-1.5-1.5q-2.355.255-5.5 1 1.026-6.081 0-12l-2 6a514 514 0 0 0-4-3q-1 0-1-1 1.382-10.242-3.5-20l-1-9q-2.658-4.608-3.5-10-2.37-2.863-5-5a197.6 197.6 0 0 0-6.5-30q-3.774-12.381-10.5-23a151 151 0 0 0-5.5-23l-3.5-3.5q-5.787-1.215-11 .5h-3q1.96-1.451 2-4a9.86 9.86 0 0 1-6-1 12 12 0 0 0 1-6q3.94.888 8 1v-3q7.928 3.294 17 4a31.2 31.2 0 0 0 6-4.5q-1.61-4.668 0-9.5a57.4 57.4 0 0 0-9-2q.028-2.34 1-4.5-4.192-15.393-16-28.5-1.237-1.329-3-1 .724 6.115-5 7 .424-5.358 2-9.5-8.648.775-14.5-5.5-.47-4.642 1.5-9a7.25 7.25 0 0 0-2-2.5 32.8 32.8 0 0 1-11-.5 26 26 0 0 1 4-4.5 11 11 0 0 0-1-2.5 263 263 0 0 0 22 16q18.102 18.672 28 43 1.025 2.515 4 2 .034-3.64 1.5-7a189 189 0 0 1 9-14q.74-2.45.5-5 4.361-3.457 10-4-.234-6.605 4.5-11l1 2q2.564-6.162 6.5-11 5.551.457 7-5 6.278-.123 8-6 3.52-.975 5-4 12.336-2.028 23-8.5a539 539 0 0 1 42-1.5" style="opacity:1"/><path fill="#ed1b22" d="M159.5 26.5a234 234 0 0 0 16 4q3.255 4.386 9 5l1 2q.635 1.147 1 2.5a26 26 0 0 0-4 4.5q5.468 1.181 11 .5a7.25 7.25 0 0 1 2 2.5q-1.97 4.358-1.5 9 5.852 6.275 14.5 5.5-1.576 4.142-2 9.5 5.724-.885 5-7 1.763-.329 3 1 11.808 13.107 16 28.5a11.2 11.2 0 0 0-1 4.5 57.4 57.4 0 0 1 9 2q-1.61 4.832 0 9.5a31.2 31.2 0 0 1-6 4.5q-9.072-.706-17-4v3a41.5 41.5 0 0 1-8-1 12 12 0 0 1-1 6 9.86 9.86 0 0 0 6 1q-.04 2.549-2 4-4.888 5.437-4 13-2.146.572-2.5 3a209 209 0 0 0-3.5 20h-3a74 74 0 0 1-1.5 12q-6.883 20.09-8.5 41-3.871 4.625-3 11-2.358 3.666-4.5 8a81.7 81.7 0 0 1-3.5 15 287 287 0 0 1-17-33q-.796-3.797-4-6 1.237-1.329 3-1a113 113 0 0 0-.5-15 6418 6418 0 0 0-140 0q-2.124-5.187-1.5-11h-3v-5h-4a68.2 68.2 0 0 1 2-16q-1.983-.255-3.5 1l-1 9a81 81 0 0 1-2.5 3q-.432-4.659-5-6v-34a141 141 0 0 1 4-11q2.448-.488 3-3a136 136 0 0 0 3-16q3.171-1.926 3-6a168 168 0 0 0 8-1.5l-3-1q2.42-7.169 5-14.5a90.7 90.7 0 0 0 12.5-15 370 370 0 0 1 16.5-16q0-1 1-1a272 272 0 0 1 19-11q4.527-.306 9-1v-3a18.4 18.4 0 0 0 6-.5 25.5 25.5 0 0 1 9-4 92.6 92.6 0 0 0 17-2.5q2.834-.096 5 1.5a20.2 20.2 0 0 0-6 1.5 257 257 0 0 0 32 1v-4a128 128 0 0 0-16 .5q-3.892 2.84-8 0-2-1 0-2l12-.5a151.8 151.8 0 0 1 28 3" style="opacity:1"/><path fill="#ba3837" d="M175.5 30.5q5.238 1.365 9 5-5.745-.614-9-5" style="opacity:.976"/><path fill="#cc2c2f" d="M372.5 24.5q26.881 5.778 48 23-9.687-3.13-17-10-6.542-1.61-12-5l-3 .5q3.779 2.936 0 4-1.384-3.061-1-6.5-9.248.837-15-6" style="opacity:1"/><path fill="#bc363d" d="M79.5 31.5q.128 1.495-1 2.5a50 50 0 0 0-7 2.5 272 272 0 0 0-19 11q11.804-10.66 27-16" style="opacity:.514"/><path fill="#c02e37" d="M184.5 35.5q13.228 6.72 23 18a263 263 0 0 1-22-16z" style="opacity:.843"/><path fill="#c13136" d="M420.5 47.5q9.37 5.367 16 14a63 63 0 0 0-8-4.5 116 116 0 0 0-8-9.5" style="opacity:.745"/><path fill="#ba3137" d="M51.5 48.5a370 370 0 0 0-16.5 16 90.7 90.7 0 0 1-12.5 15q10.86-18.86 29-31" style="opacity:.412"/><path fill="#c02d3e" d="M436.5 61.5a71 71 0 0 1 9 11q-6.192-4.185-9-11" style="opacity:.776"/><path fill="#d7282f" d="M292.5 33.5q-1.48 3.025-5 4-1.722 5.877-8 6-1.449 5.457-7 5-3.936 4.838-6.5 11l-1-2q-4.734 4.395-4.5 11-5.639.543-10 4 15.232-25.734 42-39" style="opacity:1"/><path fill="#d42333" d="M445.5 72.5q7.483 7.956 12 18-1.494.128-2.5-1a36.6 36.6 0 0 0-7.5-10 34 34 0 0 1-2-7" style="opacity:.947"/><path fill="#c32f32" d="M250.5 72.5a12.9 12.9 0 0 1-.5 5 189 189 0 0 0-9 14 17.8 17.8 0 0 0-1.5 7q-2.975.515-4-2 1.314.195 2-1 4.746-12.683 13-23" style="opacity:.886"/><path fill="#d5272c" d="M22.5 79.5q-2.58 7.331-5 14.5l3 1a168 168 0 0 1-8 1.5q.171 4.074-3 6 4.585-12.68 13-23" style="opacity:1"/><path fill="#bf2831" d="M463.5 103.5a372 372 0 0 1 10 29v2q-2.51-1.264-3.5-4a246 246 0 0 0-6.5-27" style="opacity:.412"/><path fill="#cb262d" d="M9.5 102.5a136 136 0 0 1-3 16q-.552 2.512-3 3 1.404-10.15 6-19" style="opacity:.945"/><path fill="#c7343c" d="M210.5 123.5h3q-5.486 5.526-7 13-.888-7.563 4-13" style="opacity:.686"/><path fill="#c3373b" d="M213.5 123.5q5.213-1.715 11-.5l3.5 3.5a151 151 0 0 1 5.5 23 295 295 0 0 0-7.5-22q-5.08-5.308-12.5-4" style="opacity:.812"/><path fill="#c62a32" d="M-.5 167.5v-1q4.568 1.341 5 6 .465 4.82-1 9-1.45-7.32-4-14" style="opacity:.804"/><path fill="#be3238" d="M473.5 166.5v1a505 505 0 0 1-8 24 147 147 0 0 1 4.5-21q1.11-2.728 3.5-4" style="opacity:.812"/><path fill="#b8525e" d="M222.5 178.5q-1.356-1.063-1-3h-4q.401 2.398-1 4-.327-5.722 3-10 3.089 3.807 3 9" style="opacity:.09"/><path fill="#c8363e" d="M222.5 178.5a300 300 0 0 1 12 37 133.4 133.4 0 0 0-9-20q.093-9.522-5.5-17a31.7 31.7 0 0 1-5 12 18.5 18.5 0 0 0-.5 6q-1.496-.045-2 1.5-1.242 6.863-4 12.5a351 351 0 0 1 8-31q1.401-1.602 1-4h4q-.356 1.937 1 3" style="opacity:1"/><path fill="#cf3137" d="M233.5 149.5q6.726 10.619 10.5 23a197.6 197.6 0 0 1 6.5 30 2474 2474 0 0 1-17-53" style="opacity:.843"/><path fill="#c7343a" d="M206.5 136.5a1582 1582 0 0 1-19 76q1.617-20.91 8.5-41a74 74 0 0 0 1.5-12h3a209 209 0 0 1 3.5-20q.354-2.428 2.5-3" style="opacity:.914"/><path fill="#ea1c26" d="M159.5 213.5a1527 1527 0 0 0-6-5 9481 9481 0 0 0-138-1.5 747 747 0 0 0-11-24.5q-1 0-1-1 1.465-4.18 1-9a81 81 0 0 0 2.5-3l1-9q1.517-1.255 3.5-1a68.2 68.2 0 0 0-2 16h4v5h3q-.624 5.813 1.5 11 69.618-.763 140 0 .749 7.483.5 15-1.763-.329-3 1 3.204 2.203 4 6" style="opacity:1"/><path fill="#bd2f2d" d="M465.5 191.5q-.166.925-1 1.5l-10 1-83 1q-6.378 7.521-10 16.5.945-11.045 9-18.5 47.562-.272 95-1.5" style="opacity:.708"/><path fill="#d21c26" d="M4.5 182.5a747 747 0 0 1 11 24.5q69.253.25 138 1.5h-138q-3.79-3.015-5.5-8a91.6 91.6 0 0 1-5.5-18" style="opacity:.827"/><path fill="#cf2e36" d="M250.5 202.5q2.63 2.137 5 5 .842 5.392 3.5 10l1 9q4.882 9.758 3.5 20z" style="opacity:1"/><path fill="#c3353d" d="M15.5 208.5h138q2.962 2.456 6 5a287 287 0 0 0 17 33 81.7 81.7 0 0 0 3.5-15q2.142-4.334 4.5-8a192 192 0 0 1-5.5 23q-.294 2.679-2.5 4a360 360 0 0 1-18.5-36q-2.456-3.465-6.5-4.5a9208 9208 0 0 1-136-1.5" style="opacity:.221"/><path fill="#c33f44" d="M384.5 214.5a796 796 0 0 1 69-.5 4.46 4.46 0 0 1 2 1.5q-2.284 5.593-6 10l1-4q2.494-2.907 2-7z" style="opacity:.149"/><path fill="#c61f20" d="M384.5 214.5h68q.494 4.093-2 7l1-6q-33.504-.25-67 .5-4.145 5.042-5.5 11.5-2.039 1.298-3.5 3a74.3 74.3 0 0 1 6.5-15q1.006-1.129 2.5-1" style="opacity:.747"/><path fill="#e61c26" d="M225.5 195.5a133.4 133.4 0 0 1 9 20 12.9 12.9 0 0 0 .5 5 862 862 0 0 0 10.5 29 41 41 0 0 0 .5 9 316 316 0 0 0 10 27 100 100 0 0 0 1.5 8 178 178 0 0 1-7.5-16q-1.183 5.387.5 10.5a8.4 8.4 0 0 1-4 .5q-.135-9.072 3-17.5a34 34 0 0 1-3-8.5q-2.114 4.345 1 8-1.783 1.393-4 1a118 118 0 0 1-5-21h3a462 462 0 0 1-6.5-26l-1-1-1 12q-3.681-2.27-5 2a7.3 7.3 0 0 0-2-3q-.084-10.33-2-21a7.3 7.3 0 0 1-2 3 90.5 90.5 0 0 1 0-19q1.566 1.684 2 4l1.5-1.5q-1.952-2.424 0-4.5" style="opacity:1"/><path fill="#c8444c" d="M187.5 212.5q-.639 5.89-3 11-.871-6.375 3-11" style="opacity:.365"/><path fill="#ed1b22" d="M225.5 195.5q-1.952 2.076 0 4.5l-1.5 1.5q-.434-2.316-2-4a90.5 90.5 0 0 0 0 19 7.3 7.3 0 0 0 2-3q1.916 10.67 2 21a7.3 7.3 0 0 1 2 3q1.319-4.27 5-2l1-12 1 1a462 462 0 0 0 6.5 26h-3a118 118 0 0 0 5 21q2.217.393 4-1-3.114-3.655-1-8a34 34 0 0 0 3 8.5q-3.135 8.428-3 17.5a8.4 8.4 0 0 0 4-.5q-1.683-5.113-.5-10.5a178 178 0 0 0 7.5 16q1.891 4.137 2.5 9 1.006 1.129 2.5 1 .765 12.045 7 22a581 581 0 0 1 5 23.5 492 492 0 0 1 12.5 2.5 25.4 25.4 0 0 0 6.5-5.5 2.43 2.43 0 0 0-2-.5q0-1 1-1 2.806-.538 4.5-3 .286-3.312 1.5-6 1.083-.626 1.5-2 .621.686 1.5 1a51 51 0 0 0 2-6q-1.896-5.48 0-11a7.25 7.25 0 0 1 2.5 2h12a60.6 60.6 0 0 0-1.5-20.5 49.9 49.9 0 0 0 0-17.5q-2.952 3.158-3 7.5 2.429 7.524 2 15.5h-3q.563-4.345-1.5-8-.315 1.954.5 4-3.043 3.93-1 8.5-.17 1.92-2 2.5a92 92 0 0 1-2-10.5 248 248 0 0 0 8.5-38.5q1.565 1.684 2 4l1 9q2.278-7.386.5-15a21.4 21.4 0 0 0 7-1q2.82 3.383 3 8 3.245.332 5 3 2.034 19.776 20.5 12a19 19 0 0 1 3-5q.743-2.96.5-6a67 67 0 0 1 8-11q3.048-.822 3-4a32.5 32.5 0 0 0 8-.5l2-5q2.9-1.174 4.5 1.5.747-4.473.5-9-3.55-.996-6-4-1.058-3.884 0-8h3a10.1 10.1 0 0 1 1.5-6q1.63 3.648 1.5-1a9215 9215 0 0 0 47-.5 13.9 13.9 0 0 0 3 4q1.423.926 2.5-.5.288 4.643-2.5 8.5l1 1.5a664 664 0 0 1 9.5-9q1 1.5 0 3a688 688 0 0 1-9.5 13.5q-1.988-.222-3.5.5-3.238-4.853-8.5-1.5-4.368 2.787-4.5 7.5 3.25-1.25 4.5-4.5a16.24 16.24 0 0 1 8 0q1.778 4.167-3 4.5a29.8 29.8 0 0 1-2 7 49 49 0 0 1-11 5q-.359-2.951 1-5.5a9.5 9.5 0 0 1-1.5-2.5q-6.635.798-13.5 1l-2 15-14 1-2 15q-6.355.291-12.5 0a3.65 3.65 0 0 1-1.5 1l-2 15-14 1a49.9 49.9 0 0 0-1 14q9.133.765 1 5a6.85 6.85 0 0 0-1 4 4.93 4.93 0 0 0-3 .5 30.4 30.4 0 0 1-6.5 6.5q-3.494-1.971-3-6a847 847 0 0 0 10.5-7.5l-1.5-1.5q-7.578-.185-12 7a60 60 0 0 1-.5 12h3v5q-9.077 7.079-15 17a12.9 12.9 0 0 0-5 .5q2 1 0 2a4.93 4.93 0 0 1-3 .5q.329 1.763-1 3a125 125 0 0 1-7.5 6 8.4 8.4 0 0 0-.5 4q-2.975-.514-4 2-3.268.51-5.5 3 .192-2.917-.5-5.5a10.9 10.9 0 0 0 5-4.5q-7.216-4.419-11 3.5a4.93 4.93 0 0 1-3 .5q-.125 7.64 7 5.5a32.3 32.3 0 0 1-9.5 3.5q-4.106-1.665-8.5-.5-1.255 1.517-1 3.5-1.983-.255-3.5 1-1 3 0 6 .621.686 1.5 1a156 156 0 0 1 8-8.5q3.683-1.158 5 2.5-5.18 4.748-5.5 12-2.24-3.09-5.5-1a47.3 47.3 0 0 1-5.5 6 17.44 17.44 0 0 1-4-7 73 73 0 0 1-9.5 1l-2 15-14 1a57.2 57.2 0 0 0-1 15q-5.369.399-1 4 1.426-1.239 3-.5l-1 1q4.58 2.371 2 7a4.93 4.93 0 0 1-3 .5v4q-2.682.428-5-1a108.8 108.8 0 0 1-17-18q-2.16-2.178-5-3a85.2 85.2 0 0 1-15-16q-1.716-4.015-.5-8-3.399-2.185-7.5-2.5-1.255-1.517-1-3.5a24.1 24.1 0 0 1-8-3v-1q-1.37-2.379 0-4.5a18.7 18.7 0 0 1-6-6.5q2.752-5.257-1.5-9 .726 10.85-7 4a10.1 10.1 0 0 1-1.5-6q2.682.428 5-1l-1-1q-3.74.15-7.5 1a26.7 26.7 0 0 0-1.5-6.5q-2.77.212-5.5.5a25.2 25.2 0 0 0-5.5-3 159 159 0 0 1-15-15 46 46 0 0 0-5.5-6q-.081-5.041-3-9-2.399 2.304-5.5 1.5-3.406-4.173-8-6.5a63 63 0 0 1-4.5-8q-5.121-2.866-7.5-8-6.535.408-5-5.5-13.07-5.843-20-18.5a93 93 0 0 0-11-7 4.93 4.93 0 0 0-.5-3 95 95 0 0 1-8.5-7 6.54 6.54 0 0 1-3-3 12.9 12.9 0 0 0-.5-5q-2.814-3.305-5.5-6.5l2-3-1-1.5-2.5 3a138 138 0 0 0-11.5-11 28.8 28.8 0 0 0-3-8q.165-.925 1-1.5 55.998-.75 112-.5a180 180 0 0 1 5.5 14q5.143 6.78 8 15 1.006 1.129 2.5 1 .185 6.372 5 10 2.262 2.521 3 6 1.998 8.228 6 15.5 7.902 1.602 15-2 2.993-4.2 3-9.5 7.7-22.305 14-45 3.46-10.043 4.5-21 .476-2.701 2-1 3.58-8.146 3.5-17a18.5 18.5 0 0 1 .5-6 31.7 31.7 0 0 0 5-12q5.593 7.478 5.5 17" style="opacity:1"/><path fill="#e71e26" d="m450.5 221.5-1 4a184 184 0 0 1-24 33 29.8 29.8 0 0 0 2-7q4.778-.333 3-4.5a16.24 16.24 0 0 0-8 0q-1.25 3.25-4.5 4.5.132-4.713 4.5-7.5 5.262-3.353 8.5 1.5 1.512-.722 3.5-.5a688 688 0 0 0 9.5-13.5q1-1.5 0-3a664 664 0 0 0-9.5 9l-1-1.5q2.788-3.857 2.5-8.5-1.077 1.426-2.5.5a13.9 13.9 0 0 1-3-4 9215 9215 0 0 1-47 .5q.13 4.648-1.5 1a10.1 10.1 0 0 0-1.5 6h-3q-1.058 4.116 0 8 2.45 3.004 6 4a41 41 0 0 1-.5 9q-1.6-2.674-4.5-1.5l-2 5a32.5 32.5 0 0 1-8 .5q.048 3.178-3 4a189 189 0 0 1 2-12q5.582-8.176 8-18 1.461-1.702 3.5-3 1.355-6.458 5.5-11.5 33.496-.75 67-.5z" style="opacity:1"/><path fill="#c6525a" d="M234.5 215.5a253 253 0 0 1 11 34 862 862 0 0 1-10.5-29 12.9 12.9 0 0 1-.5-5" style="opacity:.42"/><path fill="#b1373e" d="M143.5 229.5h-115q-.356 1.937 1 3a28.8 28.8 0 0 1 3 8q-4.205-4.375-7-10a3.65 3.65 0 0 1 1-1.5q58.754-1.247 117 .5" style="opacity:.275"/><path fill="#d52832" d="M214.5 196.5q.08 8.854-3.5 17-1.524-1.701-2 1-1.04 10.957-4.5 21v-9q1.098-8.39 4-16 2.758-5.637 4-12.5.504-1.545 2-1.5" style="opacity:1"/><path fill="#c82530" d="M143.5 229.5a222 222 0 0 1 15 31q-1.494.129-2.5-1-2.857-8.22-8-15a180 180 0 0 0-5.5-14q-56.002-.25-112 .5-.835.575-1 1.5-1.356-1.063-1-3z" style="opacity:.896"/><path fill="#c33a41" d="M204.5 226.5v9a765 765 0 0 1-14 45 800 800 0 0 1 14-54" style="opacity:.871"/><path fill="#bc4247" d="M375.5 230.5q-2.418 9.824-8 18a100.3 100.3 0 0 1 8-18" style="opacity:.706"/><path fill="#d0282c" d="M320.5 194.5q-7.01-2.187-12.5 3a2724 2724 0 0 0-7.5 28 3845 3845 0 0 1-14 54 59.7 59.7 0 0 1 1-11.5 116.4 116.4 0 0 0 6-27q-2.487-4.764 3-4.5a49.7 49.7 0 0 1 5-20 101.7 101.7 0 0 1 4-18.5 3.94 3.94 0 0 0-1-2q7.61-5.953 16-1.5" style="opacity:1"/><path fill="#c93237" d="M325.5 200.5q1.496-.045 2 1.5a774 774 0 0 1 9.5 24.5 264 264 0 0 0 8.5 16 106 106 0 0 1 6.5-13q1.066-3.598-.5-7 .656-1.509 2 0a10.3 10.3 0 0 0 1.5-4l1 1q3.304-3.253 2.5-8h3a732 732 0 0 1-13.5 34q-3.123 3.975-5-1a1195 1195 0 0 1-17.5-44" style="opacity:1"/><path fill="#c72e37" d="M325.5 251.5a163 163 0 0 1 8 19q-1.755-2.668-5-3-.18-4.617-3-8a100 100 0 0 0-4.5-13q-1.224-1.984-3.5-2-.282-2.405 1.5-4a5432 5432 0 0 0 6.5 11" style="opacity:1"/><path fill="#c04a4f" d="M325.5 251.5a5432 5432 0 0 1-6.5-11q-1.782 1.595-1.5 4a370 370 0 0 1-7 26 552 552 0 0 1 7-32q1.5-2 3 0a51.5 51.5 0 0 1 5 13" style="opacity:.133"/><path fill="#d2292e" d="M32.5 240.5q6.016 5.12 11.5 11l2.5-3 1 1.5-2 3q2.686 3.195 5.5 6.5.74 2.451.5 5a165.5 165.5 0 0 1-19-24" style="opacity:1"/><path fill="#c22f36" d="M158.5 260.5q3.261 4.523 5 10-4.815-3.628-5-10" style="opacity:.831"/><path fill="#c2343b" d="M245.5 249.5a636 636 0 0 1 17 54q-1.494.129-2.5-1-.609-4.863-2.5-9a100 100 0 0 1-1.5-8 316 316 0 0 1-10-27 41 41 0 0 1-.5-9" style="opacity:.945"/><path fill="#be3a3e" d="M367.5 248.5a189 189 0 0 0-2 12 67 67 0 0 0-8 11 122.4 122.4 0 0 1 10-23" style="opacity:.706"/><path fill="#c23a3b" d="M54.5 267.5a95 95 0 0 0 8.5 7q.725 1.422.5 3a32.3 32.3 0 0 1-9-10" style="opacity:.678"/><path fill="#d9232c" d="M285.5 282.5a98 98 0 0 0-1.5 9q-1.207 4.078-4.5 3a21.2 21.2 0 0 1-2-7 1212 1212 0 0 0-7.5-27q-.574-.834-1.5-1-2.858-5.574-4-12 1.972 1.464 4 3l2-6q1.026 5.919 0 12 3.145-.745 5.5-1l1.5 1.5a12.9 12.9 0 0 1-5 .5 32.5 32.5 0 0 0 .5 8q4.284 2.851 2.5 7.5 3.235 6.288 3.5 13.5 1.651 2.841 4 2 .055-3.711 2.5-6" style="opacity:1"/><path fill="#cc5058" d="M300.5 225.5a1480 1480 0 0 1-16.5 74q-1.28 2.437-3 1a20.1 20.1 0 0 1-1.5-6q3.293 1.078 4.5-3a98 98 0 0 1 1.5-9 5.73 5.73 0 0 1 1-3 3845 3845 0 0 0 14-54" style="opacity:.29"/><path fill="#ea1d27" d="M425.5 258.5a190 190 0 0 1-18.5 22 1505 1505 0 0 1-46.5 44 12.9 12.9 0 0 0-5 .5q-1.712 1.112 0 2.5a20.2 20.2 0 0 1-6 1.5l3 1q-6.544 1.206-7 7.5a12.9 12.9 0 0 0-5 .5 4.46 4.46 0 0 1 2 1.5l-4 4v-5h-3q.85-5.89.5-12 4.422-7.185 12-7l1.5 1.5a847 847 0 0 1-10.5 7.5q-.494 4.029 3 6a30.4 30.4 0 0 0 6.5-6.5 4.93 4.93 0 0 1 3-.5 6.85 6.85 0 0 1 1-4q8.133-4.235-1-5a49.9 49.9 0 0 1 1-14l14-1 2-15a3.65 3.65 0 0 0 1.5-1q6.145.291 12.5 0l2-15 14-1 2-15q6.865-.202 13.5-1 .561 1.375 1.5 2.5-1.359 2.549-1 5.5a49 49 0 0 0 11-5" style="opacity:1"/><path fill="#d25360" d="M268.5 259.5q.926.166 1.5 1a1212 1212 0 0 1 7.5 27 171.6 171.6 0 0 1-9-28" style="opacity:.231"/><path fill="#e71c27" d="M317.5 244.5q2.276.016 3.5 2a100 100 0 0 1 4.5 13 21.4 21.4 0 0 1-7 1q1.778 7.614-.5 15l-1-9q-.435-2.316-2-4a248 248 0 0 1-8.5 38.5q.695 5.31 2 10.5 1.83-.58 2-2.5-2.043-4.57 1-8.5-.815-2.046-.5-4 2.063 3.655 1.5 8h3q.429-7.976-2-15.5.048-4.342 3-7.5a49.9 49.9 0 0 1 0 17.5 60.6 60.6 0 0 1 1.5 20.5h-12a7.25 7.25 0 0 0-2.5-2q-1.896 5.52 0 11a51 51 0 0 1-2 6 3.65 3.65 0 0 1-1.5-1q-.417 1.374-1.5 2a565 565 0 0 0 5-33q.926-.166 1.5-1a273 273 0 0 0 5.5-31 370 370 0 0 0 7-26" style="opacity:1"/><path fill="#bf393f" d="M333.5 270.5a75 75 0 0 0 5.5 10q5.805 5.338 12.5 1 3.814-4.647 6-10a18.5 18.5 0 0 1-.5 6 19 19 0 0 0-3 5q-18.466 7.776-20.5-12" style="opacity:.549"/><path fill="#d1292f" d="M63.5 277.5a93 93 0 0 1 11 7q6.93 12.657 20 18.5-1.535 5.908 5 5.5 2.379 5.134 7.5 8a63 63 0 0 0 4.5 8 798 798 0 0 1-48-47" style="opacity:1"/><path fill="#c13f45" d="M310.5 270.5a273 273 0 0 1-5.5 31q-.574.834-1.5 1a280 280 0 0 1 7-32" style="opacity:.663"/><path fill="#c72b34" d="M166.5 276.5a102 102 0 0 1 6.5 12q14.115 7.063 17.5-8-.007 5.3-3 9.5-7.098 3.602-15 2-4.002-7.272-6-15.5" style="opacity:.8"/><path fill="#c23840" d="M262.5 303.5a135 135 0 0 1 7 22q-6.235-9.955-7-22" style="opacity:.702"/><path fill="#c63238" d="M303.5 302.5a565 565 0 0 1-5 33q-1.214 2.688-1.5 6-1.694 2.462-4.5 3a1144 1144 0 0 1 11-42" style="opacity:1"/><path fill="#cd2b31" d="m360.5 324.5-37 36q5.923-9.921 15-17l4-4a4.46 4.46 0 0 0-2-1.5 12.9 12.9 0 0 1 5-.5q.456-6.294 7-7.5l-3-1a20.2 20.2 0 0 0 6-1.5q-1.712-1.388 0-2.5a12.9 12.9 0 0 1 5-.5" style="opacity:1"/><path fill="#d32c2e" d="M111.5 324.5q4.594 2.327 8 6.5 3.101.804 5.5-1.5 2.919 3.959 3 9a46 46 0 0 1 5.5 6 311 311 0 0 1-22-20" style="opacity:1"/><path fill="#c5353b" d="M269.5 325.5a140 140 0 0 1 5.5 16q5.89 13.222 16.5 4a2.43 2.43 0 0 1 2 .5 25.4 25.4 0 0 1-6.5 5.5 492 492 0 0 0-12.5-2.5 581 581 0 0 0-5-23.5" style="opacity:.796"/><path fill="#d23036" d="M323.5 360.5a771 771 0 0 1-33 33q-.428-2.682 1-5a3.65 3.65 0 0 1 1.5 1q4.776-5.607 9.5-11 1.025-2.514 4-2a8.4 8.4 0 0 1 .5-4 125 125 0 0 0 7.5-6q1.329-1.237 1-3a4.93 4.93 0 0 0 3-.5q2-1 0-2a12.9 12.9 0 0 1 5-.5" style="opacity:.965"/><path fill="#dc232a" d="M148.5 359.5a25.2 25.2 0 0 1 5.5 3q2.73-.288 5.5-.5a26.7 26.7 0 0 1 1.5 6.5q3.76-.85 7.5-1l1 1q-2.318 1.428-5 1a10.1 10.1 0 0 0 1.5 6q7.726 6.85 7-4 4.252 3.743 1.5 9a18.7 18.7 0 0 0 6 6.5q-1.37 2.121 0 4.5-16.5-15.5-32-32" style="opacity:1"/><path fill="#da272c" d="M180.5 392.5a24.1 24.1 0 0 0 8 3q-.255 1.983 1 3.5 4.101.315 7.5 2.5-1.216 3.985.5 8-9-8-17-17" style="opacity:1"/><path fill="#e71e26" d="M302.5 378.5a1051 1051 0 0 0-9.5 11 3.65 3.65 0 0 0-1.5-1q-1.428 2.318-1 5a41242 41242 0 0 1-51 54v-4a4.93 4.93 0 0 0 3-.5q2.58-4.629-2-7l1-1q-1.574-.739-3 .5-4.369-3.601 1-4a57.2 57.2 0 0 1 1-15l14-1 2-15a73 73 0 0 0 9.5-1 17.44 17.44 0 0 0 4 7 47.3 47.3 0 0 0 5.5-6q3.26-2.09 5.5 1 .32-7.252 5.5-12-1.317-3.658-5-2.5a156 156 0 0 0-8 8.5 3.65 3.65 0 0 1-1.5-1q-1-3 0-6 1.517-1.255 3.5-1-.255-1.983 1-3.5 4.394-1.165 8.5.5a32.3 32.3 0 0 0 9.5-3.5q-7.125 2.14-7-5.5a4.93 4.93 0 0 0 3-.5q3.784-7.919 11-3.5a10.9 10.9 0 0 1-5 4.5q.692 2.583.5 5.5 2.232-2.49 5.5-3" style="opacity:1"/><path fill="#cd3237" d="M212.5 425.5q2.84.822 5 3a108.8 108.8 0 0 0 17 18q2.318 1.428 5 1-2.014 4.76-6 1.5a687 687 0 0 1-21-23.5" style="opacity:.639"/></svg>