<?xml version="1.0" encoding="UTF-8"?>
<!DOCTYPE svg PUBLIC "-//W3C//DTD SVG 1.1//EN" "http://www.w3.org/Graphics/SVG/1.1/DTD/svg11.dtd">
<svg xmlns="http://www.w3.org/2000/svg" version="1.1" width="485px" height="514px"
   style="shape-rendering:geometricPrecision; text-rendering:geometricPrecision; image-rendering:optimizeQuality; fill-rule:evenodd; clip-rule:evenodd"
   xmlns:xlink="http://www.w3.org/1999/xlink">
   <g>
      <path style="opacity:0.999" fill="#2e3f5d"
         d="M 136.5,125.5 C 148.792,125.728 161.125,125.728 173.5,125.5C 207.222,128.541 237.722,139.874 265,159.5C 279.992,156.301 294.825,152.468 309.5,148C 323.307,119.624 325.14,90.4568 315,60.5C 310.066,51.7967 305.566,42.9633 301.5,34C 305.512,20.9182 313.345,18.0849 325,25.5C 349.736,63.7931 354.069,104.46 338,147.5C 335.5,153 333,158.5 330.5,164C 345.095,220.164 353.428,277.331 355.5,335.5C 356.924,354.575 348.257,363.408 329.5,362C 316.691,357.73 304.024,353.063 291.5,348C 290.978,347.439 290.645,346.772 290.5,346C 293.945,334.765 296.612,323.265 298.5,311.5C 299.333,311.167 300.167,310.833 301,310.5C 305.723,312.281 310.556,313.614 315.5,314.5C 315.291,305.078 314.291,295.745 312.5,286.5C 307.89,285.507 303.223,284.84 298.5,284.5C 296.693,306.621 292.527,328.287 286,349.5C 282.807,358.203 276.64,362.87 267.5,363.5C 238.35,358.837 209.35,353.337 180.5,347C 171.619,340.637 168.786,332.137 172,321.5C 177.437,312.011 185.603,308.511 196.5,311C 215.176,314.548 233.843,318.048 252.5,321.5C 262.595,276.334 263.095,231.001 254,185.5C 246.036,177.877 237.203,171.377 227.5,166C 199.617,153.558 170.283,147.891 139.5,149C 132.715,147.881 129.048,143.881 128.5,137C 128.721,131.306 131.387,127.472 136.5,125.5 Z" />
   </g>
   <g>
      <path style="opacity:0.998" fill="#2e3f5d"
         d="M 270.5,78.5 C 292.931,79.5999 305.264,91.2665 307.5,113.5C 305.446,135.054 293.612,146.721 272,148.5C 250.962,146.295 239.462,134.629 237.5,113.5C 239.973,93.6959 250.973,82.0292 270.5,78.5 Z" />
   </g>
   <g>
      <path style="opacity:0.811" fill="#2e3f5d"
         d="M 173.5,125.5 C 161.125,125.728 148.792,125.728 136.5,125.5C 148.833,124.167 161.167,124.167 173.5,125.5 Z" />
   </g>
   <g>
      <path style="opacity:0.993" fill="#2e3f5d"
         d="M 247.5,295.5 C 249.5,295.5 251.5,295.5 253.5,295.5C 253.384,302.249 252.551,308.916 251,315.5C 250.311,316.357 249.478,317.023 248.5,317.5C 244.258,316.251 239.925,315.417 235.5,315C 234.484,314.481 233.818,313.647 233.5,312.5C 234.629,303.721 239.295,298.055 247.5,295.5 Z" />
   </g>
   <g>
      <path style="opacity:0.993" fill="#2e3f5d"
         d="M 293.5,385.5 C 294.822,385.33 295.989,385.663 297,386.5C 297.667,407.833 297.667,429.167 297,450.5C 295.989,451.337 294.822,451.67 293.5,451.5C 293.5,429.5 293.5,407.5 293.5,385.5 Z" />
   </g>
   <g>
      <path style="opacity:1" fill="#2e3f5d"
         d="M 289.5,398.5 C 289.5,429.167 289.5,459.833 289.5,490.5C 288.5,490.5 287.5,490.5 286.5,490.5C 286.5,459.833 286.5,429.167 286.5,398.5C 287.5,398.5 288.5,398.5 289.5,398.5 Z" />
   </g>
   <g>
      <path style="opacity:0.54" fill="#2e3f5d"
         d="M 279.5,371.5 C 280.458,371.953 281.292,372.619 282,373.5C 282.667,394.833 282.667,416.167 282,437.5C 280.989,438.337 279.822,438.67 278.5,438.5C 278.178,416.092 278.511,393.758 279.5,371.5 Z" />
   </g>
   <g>
      <path style="opacity:0.126" fill="#2e3f5d"
         d="M 289.5,398.5 C 288.5,398.5 287.5,398.5 286.5,398.5C 286.5,429.167 286.5,459.833 286.5,490.5C 287.5,490.5 288.5,490.5 289.5,490.5C 288.432,491.434 287.099,491.768 285.5,491.5C 285.5,460.167 285.5,428.833 285.5,397.5C 287.099,397.232 288.432,397.566 289.5,398.5 Z" />
   </g>
</svg>