<?xml version="1.0" encoding="UTF-8"?>
<!DOCTYPE svg PUBLIC "-//W3C//DTD SVG 1.1//EN" "http://www.w3.org/Graphics/SVG/1.1/DTD/svg11.dtd">
<svg xmlns="http://www.w3.org/2000/svg" version="1.1" width="500px" height="500px"
   style="shape-rendering:geometricPrecision; text-rendering:geometricPrecision; image-rendering:optimizeQuality; fill-rule:evenodd; clip-rule:evenodd"
   xmlns:xlink="http://www.w3.org/1999/xlink">
   <g>
      <path style="opacity:0.999" fill="#2e3f5d"
         d="M 312.5,73.5 C 312.5,79.1667 312.5,84.8333 312.5,90.5C 312.768,92.099 312.434,93.4324 311.5,94.5C 310.566,95.5676 310.232,96.901 310.5,98.5C 339.835,98.6666 369.169,98.5 398.5,98C 400.903,96.147 403.236,94.3137 405.5,92.5C 414.723,89.8184 424.223,87.8184 434,86.5C 434.902,86.7432 435.735,87.0766 436.5,87.5C 438.599,88.6118 440.933,89.2785 443.5,89.5C 448.975,91.1363 453.142,94.4696 456,99.5C 470.498,137.531 457.498,156.531 417,156.5C 409.754,156.626 403.588,154.126 398.5,149C 397.167,148.833 395.833,148.667 394.5,148.5C 379.846,150.356 365.179,152.022 350.5,153.5C 348.315,153.296 346.315,152.63 344.5,151.5C 337.219,143.068 328.552,136.235 318.5,131C 306.69,127.754 295.69,129.42 285.5,136C 279.367,142.479 273.367,148.979 267.5,155.5C 266.222,155.218 265.222,154.551 264.5,153.5C 264.277,149.838 263.277,146.505 261.5,143.5C 257.898,133.211 253.231,123.378 247.5,114C 245.402,113.322 243.402,113.489 241.5,114.5C 239.403,115.879 239.07,117.545 240.5,119.5C 242.358,121.883 243.692,124.55 244.5,127.5C 244.402,129.553 245.069,131.22 246.5,132.5C 254.141,151.728 259.308,171.728 262,192.5C 263.305,195.306 265.472,196.14 268.5,195C 270.155,193.556 270.822,191.722 270.5,189.5C 270.279,186.933 269.612,184.599 268.5,182.5C 268.818,176.574 270.151,170.907 272.5,165.5C 278.625,158.205 284.958,151.038 291.5,144C 293.818,142.007 296.484,140.841 299.5,140.5C 304.167,140.5 308.833,140.5 313.5,140.5C 315.703,140.604 317.703,141.27 319.5,142.5C 320.865,144.86 322.865,146.527 325.5,147.5C 332.943,152.112 338.443,158.445 342,166.5C 344.365,174.576 343.365,182.243 339,189.5C 333.167,196 327.333,202.5 321.5,209C 313.86,214.202 305.527,215.868 296.5,214C 288.629,221.374 280.629,228.541 272.5,235.5C 270.621,235.607 270.288,235.107 271.5,234C 270.975,233.308 270.308,232.808 269.5,232.5C 268.167,234.167 266.833,235.833 265.5,237.5C 265.833,238.167 266.167,238.833 266.5,239.5C 265.349,240.731 264.183,240.731 263,239.5C 262.769,241.157 261.935,242.491 260.5,243.5C 252.571,245.687 246.071,243.354 241,236.5C 236.333,225.167 231.667,213.833 227,202.5C 222.667,206.833 218.333,211.167 214,215.5C 194.016,207.26 174.183,198.593 154.5,189.5C 153.628,187.534 153.795,185.534 155,183.5C 159.479,172.537 164.979,162.203 171.5,152.5C 174.086,151.362 175.753,149.362 176.5,146.5C 176.427,144.973 177.094,143.973 178.5,143.5C 181.605,140.725 183.938,137.392 185.5,133.5C 185.427,131.973 186.094,130.973 187.5,130.5C 189.9,128.704 191.567,126.37 192.5,123.5C 198.446,114.381 204.613,105.381 211,96.5C 213.478,94.1804 216.311,92.5137 219.5,91.5C 222.067,91.2785 224.401,90.6118 226.5,89.5C 228.607,88.5318 230.941,88.1984 233.5,88.5C 235.465,77.7697 239.298,67.7697 245,58.5C 261.36,41.1784 279.526,39.0117 299.5,52C 306.526,57.5542 310.859,64.7209 312.5,73.5 Z M 420.5,109.5 C 420.833,110.5 421.5,111.167 422.5,111.5C 422.634,113.292 422.301,114.958 421.5,116.5C 392.003,117.664 362.336,117.831 332.5,117C 322.477,115.83 312.477,114.497 302.5,113C 303.056,112.617 303.389,112.117 303.5,111.5C 342.28,109.515 381.28,108.849 420.5,109.5 Z" />
   </g>
   <g>
      <path style="opacity:0.452" fill="#2e3f5d"
         d="M 312.5,73.5 C 314.871,79.2061 314.871,84.8727 312.5,90.5C 312.5,84.8333 312.5,79.1667 312.5,73.5 Z" />
   </g>
   <g>
      <path style="opacity:0.051" fill="#2e3f5d"
         d="M 436.5,87.5 C 439.228,87.1706 441.562,87.8372 443.5,89.5C 440.933,89.2785 438.599,88.6118 436.5,87.5 Z" />
   </g>
   <g>
      <path style="opacity:0.11" fill="#2e3f5d"
         d="M 226.5,89.5 C 224.401,90.6118 222.067,91.2785 219.5,91.5C 221.438,89.8372 223.772,89.1706 226.5,89.5 Z" />
   </g>
   <g>
      <path style="opacity:0.184" fill="#2e3f5d"
         d="M 107.5,98.5 C 137.662,97.5019 167.995,97.1685 198.5,97.5C 198.737,98.791 198.404,99.791 197.5,100.5C 167.852,98.5078 137.852,97.8411 107.5,98.5 Z" />
   </g>
   <g>
      <path style="opacity:0.176" fill="#b0b0b0"
         d="M 405.5,92.5 C 403.236,94.3137 400.903,96.147 398.5,98C 369.169,98.5 339.835,98.6666 310.5,98.5C 310.232,96.901 310.566,95.5676 311.5,94.5C 311.5,95.5 311.5,96.5 311.5,97.5C 340.169,97.6666 368.835,97.5 397.5,97C 399.78,94.6963 402.446,93.1963 405.5,92.5 Z" />
   </g>
   <g>
      <path style="opacity:1" fill="#2e3f5d"
         d="M 107.5,98.5 C 137.852,97.8411 167.852,98.5078 197.5,100.5C 195.509,103.137 193.509,105.804 191.5,108.5C 163.506,109.667 135.506,109.833 107.5,109C 103.813,106.602 102.979,103.435 105,99.5C 105.671,98.7476 106.504,98.4142 107.5,98.5 Z" />
   </g>
   <g>
      <path style="opacity:0.991" fill="#2e3f5d"
         d="M 74.5,97.5 C 77.9783,97.1842 81.3117,97.6842 84.5,99C 87.1667,103 86.5,106.333 82.5,109C 71.9227,110.284 69.2561,106.45 74.5,97.5 Z" />
   </g>
   <g>
      <path style="opacity:0.179" fill="#2e3f5d"
         d="M 420.5,109.5 C 381.28,108.849 342.28,109.515 303.5,111.5C 303.5,110.5 303.5,109.5 303.5,108.5C 342.67,108.168 381.67,108.501 420.5,109.5 Z" />
   </g>
   <g>
      <path style="opacity:0.098" fill="#2e3f5d"
         d="M 422.5,111.5 C 423.139,112.097 423.472,112.93 423.5,114C 423.316,115.376 422.649,116.209 421.5,116.5C 422.649,116.209 423.316,115.376 423.5,114C 423.472,112.93 423.139,112.097 422.5,111.5 Z" />
   </g>
   <g>
      <path style="opacity:0.129" fill="#2e3f5d"
         d="M 241.5,114.5 C 240.962,116.117 240.629,117.784 240.5,119.5C 239.07,117.545 239.403,115.879 241.5,114.5 Z" />
   </g>
   <g>
      <path style="opacity:0.997" fill="#2e3f5d"
         d="M 148.5,117.5 C 159.505,117.333 170.505,117.5 181.5,118C 182.308,118.308 182.975,118.808 183.5,119.5C 180.638,123.195 177.972,127.029 175.5,131C 164.167,131.667 152.833,131.667 141.5,131C 135.011,128.377 134.011,124.377 138.5,119C 142.025,118.821 145.359,118.321 148.5,117.5 Z" />
   </g>
   <g>
      <path style="opacity:0.298" fill="#a4a4a4"
         d="M 192.5,123.5 C 191.567,126.37 189.9,128.704 187.5,130.5C 188.433,127.63 190.1,125.296 192.5,123.5 Z" />
   </g>
   <g>
      <path style="opacity:0.047" fill="#e5e5e5"
         d="M 244.5,127.5 C 245.931,128.78 246.598,130.447 246.5,132.5C 245.069,131.22 244.402,129.553 244.5,127.5 Z" />
   </g>
   <g>
      <path style="opacity:0.302" fill="#a5a5a5"
         d="M 185.5,133.5 C 183.938,137.392 181.605,140.725 178.5,143.5C 180.062,139.608 182.395,136.275 185.5,133.5 Z" />
   </g>
   <g>
      <path style="opacity:0.349" fill="#8e8e8e"
         d="M 313.5,140.5 C 308.833,140.5 304.167,140.5 299.5,140.5C 304.272,138.299 308.939,138.299 313.5,140.5 Z" />
   </g>
   <g>
      <path style="opacity:0.49" fill="#a4a4a4"
         d="M 319.5,142.5 C 322.109,143.443 324.109,145.11 325.5,147.5C 322.865,146.527 320.865,144.86 319.5,142.5 Z" />
   </g>
   <g>
      <path style="opacity:0.176" fill="#b9b9b9"
         d="M 261.5,143.5 C 263.277,146.505 264.277,149.838 264.5,153.5C 262.723,150.495 261.723,147.162 261.5,143.5 Z" />
   </g>
   <g>
      <path style="opacity:0.255" fill="#9c9c9c"
         d="M 176.5,146.5 C 175.753,149.362 174.086,151.362 171.5,152.5C 172.701,150.091 174.367,148.091 176.5,146.5 Z" />
   </g>
   <g>
      <path style="opacity:0.067" fill="#c7c7c7"
         d="M 344.5,151.5 C 346.315,152.63 348.315,153.296 350.5,153.5C 347.92,155.016 345.92,154.349 344.5,151.5 Z" />
   </g>
   <g>
      <path style="opacity:0.106" fill="#c2c2c2"
         d="M 264.5,153.5 C 265.222,154.551 266.222,155.218 267.5,155.5C 266.791,156.404 265.791,156.737 264.5,156.5C 264.5,155.5 264.5,154.5 264.5,153.5 Z" />
   </g>
   <g>
      <path style="opacity:0.041" fill="#a4a4a4"
         d="M 272.5,165.5 C 270.151,170.907 268.818,176.574 268.5,182.5C 267.853,181.726 267.52,180.726 267.5,179.5C 267.936,176.821 268.436,174.155 269,171.5C 269.424,168.975 270.59,166.975 272.5,165.5 Z" />
   </g>
   <g>
      <path style="opacity:0.163" fill="#a3a3a3"
         d="M 268.5,182.5 C 269.612,184.599 270.279,186.933 270.5,189.5C 268.837,187.562 268.171,185.228 268.5,182.5 Z" />
   </g>
   <g>
      <path style="opacity:1" fill="#2e3f5d"
         d="M 185.5,213.5 C 188.368,215.912 191.701,217.579 195.5,218.5C 203.556,220.444 210.722,224.111 217,229.5C 219.072,234.245 218.572,238.745 215.5,243C 222.252,247.031 228.585,251.531 234.5,256.5C 234.973,257.906 235.973,258.573 237.5,258.5C 237.973,259.906 238.973,260.573 240.5,260.5C 250.12,266.947 259.62,273.614 269,280.5C 271.704,283.999 272.037,287.666 270,291.5C 257.833,302.333 245.667,313.167 233.5,324C 230.113,327.053 226.447,329.72 222.5,332C 218.375,332.854 214.375,332.52 210.5,331C 205.29,325.294 200.29,319.461 195.5,313.5C 195.44,312.957 195.107,312.624 194.5,312.5C 193.892,317.296 192.892,321.963 191.5,326.5C 189.425,329.294 186.591,330.96 183,331.5C 169.454,329.537 155.954,327.537 142.5,325.5C 138.081,324.028 133.414,323.362 128.5,323.5C 123.339,323.529 118.339,322.695 113.5,321C 110.44,318.99 108.774,316.157 108.5,312.5C 115.113,285.08 121.446,257.746 127.5,230.5C 129.102,226.761 130.102,222.761 130.5,218.5C 132.293,216.574 133.293,214.241 133.5,211.5C 134.416,203.586 138.749,198.92 146.5,197.5C 159.629,202.566 172.629,207.899 185.5,213.5 Z" />
   </g>
   <g>
      <path style="opacity:0.09" fill="#cacaca"
         d="M 185.5,213.5 C 189.299,214.421 192.632,216.088 195.5,218.5C 191.701,217.579 188.368,215.912 185.5,213.5 Z" />
   </g>
   <g>
      <path style="opacity:0.051" fill="#d4d4d4"
         d="M 133.5,211.5 C 133.293,214.241 132.293,216.574 130.5,218.5C 130.707,215.759 131.707,213.426 133.5,211.5 Z" />
   </g>
   <g>
      <path style="opacity:0.045" fill="#d7d7d7"
         d="M 130.5,218.5 C 130.102,222.761 129.102,226.761 127.5,230.5C 127.584,226.163 128.584,222.163 130.5,218.5 Z" />
   </g>
   <g>
      <path style="opacity:0.999" fill="#6a6a6a"
         d="M 272.5,235.5 C 269.837,240.161 265.837,242.828 260.5,243.5C 261.935,242.491 262.769,241.157 263,239.5C 264.183,240.731 265.349,240.731 266.5,239.5C 266.167,238.833 265.833,238.167 265.5,237.5C 266.833,235.833 268.167,234.167 269.5,232.5C 270.308,232.808 270.975,233.308 271.5,234C 270.288,235.107 270.621,235.607 272.5,235.5 Z" />
   </g>
   <g>
      <path style="opacity:0.059" fill="#c7c7c7"
         d="M 234.5,256.5 C 236.027,256.427 237.027,257.094 237.5,258.5C 235.973,258.573 234.973,257.906 234.5,256.5 Z" />
   </g>
   <g>
      <path style="opacity:0.047" fill="#c1c1c1"
         d="M 237.5,258.5 C 239.027,258.427 240.027,259.094 240.5,260.5C 238.973,260.573 237.973,259.906 237.5,258.5 Z" />
   </g>
   <g>
      <path style="opacity:0.082" fill="#b5b5b5"
         d="M 281.5,305.5 C 279.284,304.797 277.451,303.464 276,301.5C 274.871,303.141 273.371,304.141 271.5,304.5C 275.16,299.14 278.493,299.473 281.5,305.5 Z" />
   </g>
   <g>
      <path style="opacity:0.514" fill="#949494"
         d="M 270.5,305.5 C 269.089,307.914 267.089,309.581 264.5,310.5C 265.911,308.086 267.911,306.419 270.5,305.5 Z" />
   </g>
   <g>
      <path style="opacity:0.999" fill="#2e3f5d"
         d="M 281.5,305.5 C 286.798,310.297 291.965,315.297 297,320.5C 317.76,352.359 338.26,384.359 358.5,416.5C 358.427,418.027 359.094,419.027 360.5,419.5C 361.338,419.842 361.672,420.508 361.5,421.5C 361.427,423.027 362.094,424.027 363.5,424.5C 363.427,426.027 364.094,427.027 365.5,427.5C 365.427,429.027 366.094,430.027 367.5,430.5C 367.427,432.027 368.094,433.027 369.5,433.5C 370.338,433.842 370.672,434.508 370.5,435.5C 370.427,437.027 371.094,438.027 372.5,438.5C 376.477,453.173 370.811,461.84 355.5,464.5C 345.976,463.309 339.309,458.309 335.5,449.5C 335.573,447.973 334.906,446.973 333.5,446.5C 325.809,436.131 318.476,425.465 311.5,414.5C 311.262,412.596 310.262,411.262 308.5,410.5C 308.573,408.973 307.906,407.973 306.5,407.5C 305.094,407.027 304.427,406.027 304.5,404.5C 303.864,402.205 302.531,400.539 300.5,399.5C 287.367,380.6 274.201,361.6 261,342.5C 255.611,338.111 249.944,334.111 244,330.5C 243.289,328.633 243.789,327.133 245.5,326C 251.998,320.999 258.331,315.833 264.5,310.5C 267.089,309.581 269.089,307.914 270.5,305.5C 270.5,304.833 270.833,304.5 271.5,304.5C 273.371,304.141 274.871,303.141 276,301.5C 277.451,303.464 279.284,304.797 281.5,305.5 Z" />
   </g>
   <g>
      <path style="opacity:0.1" fill="#d2d2d2"
         d="M 128.5,323.5 C 133.414,323.362 138.081,324.028 142.5,325.5C 137.609,325.468 132.943,324.801 128.5,323.5 Z" />
   </g>
   <g>
      <path style="opacity:0.169" fill="#b8b8b8"
         d="M 195.5,313.5 C 194.679,316.641 194.179,319.975 194,323.5C 193.623,324.942 192.79,325.942 191.5,326.5C 192.892,321.963 193.892,317.296 194.5,312.5C 195.107,312.624 195.44,312.957 195.5,313.5 Z" />
   </g>
   <g>
      <path style="opacity:0.999" fill="#2e3f5d"
         d="M 162.5,362.5 C 160.833,363.5 159.5,364.833 158.5,366.5C 157.5,368.167 156.167,369.5 154.5,370.5C 152.251,371.08 150.585,372.413 149.5,374.5C 138.495,385.505 127.161,396.172 115.5,406.5C 112.236,408.094 109.569,410.427 107.5,413.5C 96.875,423.491 86.2083,433.491 75.5,443.5C 73.2512,444.08 71.5846,445.413 70.5,447.5C 64.7629,455.194 57.4296,460.694 48.5,464C 29.6738,462.864 23.5072,453.364 30,435.5C 60.3333,405.833 90.6667,376.167 121,346.5C 121.426,341.572 122.593,336.906 124.5,332.5C 139.16,334.499 153.826,336.499 168.5,338.5C 167.994,344.866 167.161,351.2 166,357.5C 165.303,359.584 164.136,361.251 162.5,362.5 Z" />
   </g>
   <g>
      <path style="opacity:0.004" fill="#dfdfdf"
         d="M 162.5,362.5 C 162.167,364.833 160.833,366.167 158.5,366.5C 159.5,364.833 160.833,363.5 162.5,362.5 Z" />
   </g>
   <g>
      <path style="opacity:0.004" fill="#e2e2e2"
         d="M 154.5,370.5 C 153.415,372.587 151.749,373.92 149.5,374.5C 150.585,372.413 152.251,371.08 154.5,370.5 Z" />
   </g>
   <g>
      <path style="opacity:0.365" fill="#bbbbbb"
         d="M 300.5,399.5 C 302.531,400.539 303.864,402.205 304.5,404.5C 302.457,403.421 301.124,401.754 300.5,399.5 Z" />
   </g>
   <g>
      <path style="opacity:0.008" fill="#dddddd"
         d="M 115.5,406.5 C 113.431,409.573 110.764,411.906 107.5,413.5C 109.569,410.427 112.236,408.094 115.5,406.5 Z" />
   </g>
   <g>
      <path style="opacity:0.024" fill="#b5b5b5"
         d="M 306.5,407.5 C 307.906,407.973 308.573,408.973 308.5,410.5C 307.094,410.027 306.427,409.027 306.5,407.5 Z" />
   </g>
   <g>
      <path style="opacity:0.004" fill="#c3c3c3"
         d="M 308.5,410.5 C 310.262,411.262 311.262,412.596 311.5,414.5C 309.738,413.738 308.738,412.404 308.5,410.5 Z" />
   </g>
   <g>
      <path style="opacity:0.247" fill="#2e3f5d"
         d="M 358.5,416.5 C 359.906,416.973 360.573,417.973 360.5,419.5C 359.094,419.027 358.427,418.027 358.5,416.5 Z" />
   </g>
   <g>
      <path style="opacity:0.298" fill="#bdbdbd"
         d="M 361.5,421.5 C 362.906,421.973 363.573,422.973 363.5,424.5C 362.094,424.027 361.427,423.027 361.5,421.5 Z" />
   </g>
   <g>
      <path style="opacity:0.271" fill="#b9b9b9"
         d="M 363.5,424.5 C 364.906,424.973 365.573,425.973 365.5,427.5C 364.094,427.027 363.427,426.027 363.5,424.5 Z" />
   </g>
   <g>
      <path style="opacity:0.235" fill="#bfbfbf"
         d="M 365.5,427.5 C 366.906,427.973 367.573,428.973 367.5,430.5C 366.094,430.027 365.427,429.027 365.5,427.5 Z" />
   </g>
   <g>
      <path style="opacity:0.204" fill="#bcbcbc"
         d="M 367.5,430.5 C 368.906,430.973 369.573,431.973 369.5,433.5C 368.094,433.027 367.427,432.027 367.5,430.5 Z" />
   </g>
   <g>
      <path style="opacity:0.018" fill="#e3e3e3"
         d="M 370.5,435.5 C 371.906,435.973 372.573,436.973 372.5,438.5C 371.094,438.027 370.427,437.027 370.5,435.5 Z" />
   </g>
   <g>
      <path style="opacity:0.004" fill="#dedede"
         d="M 75.5,443.5 C 74.4154,445.587 72.7488,446.92 70.5,447.5C 71.5846,445.413 73.2512,444.08 75.5,443.5 Z" />
   </g>
   <g>
      <path style="opacity:0.004" fill="#e1e1e1"
         d="M 333.5,446.5 C 334.906,446.973 335.573,447.973 335.5,449.5C 334.094,449.027 333.427,448.027 333.5,446.5 Z" />
   </g>
</svg>