<?xml version="1.0" encoding="UTF-8"?>
<!DOCTYPE svg PUBLIC "-//W3C//DTD SVG 1.1//EN" "http://www.w3.org/Graphics/SVG/1.1/DTD/svg11.dtd">
<svg xmlns="http://www.w3.org/2000/svg" version="1.1" width="272px" height="271px"
   style="shape-rendering:geometricPrecision; text-rendering:geometricPrecision; image-rendering:optimizeQuality; fill-rule:evenodd; clip-rule:evenodd"
   xmlns:xlink="http://www.w3.org/1999/xlink">
   <g>
      <path style="opacity:1" fill="#2e3f5d"
         d="M 121.5,6.5 C 135.717,7.12351 150.05,8.12351 164.5,9.5C 164.611,10.1174 164.944,10.6174 165.5,11C 167.698,11.3729 169.865,11.8729 172,12.5C 172.765,12.4301 173.265,12.0967 173.5,11.5C 176.397,12.129 179.064,13.129 181.5,14.5C 186.694,17.7649 192.694,20.7649 199.5,23.5C 200.492,23.3284 201.158,23.6618 201.5,24.5C 203.877,27.4181 206.877,29.4181 210.5,30.5C 214.207,32.6885 217.54,35.3552 220.5,38.5C 225.478,43.813 230.478,49.1463 235.5,54.5C 236.48,57.1161 237.98,59.4494 240,61.5C 240.651,63.235 240.485,64.9017 239.5,66.5C 241.5,67.8333 243.5,69.1667 245.5,70.5C 250.193,78.8571 254.193,86.8571 257.5,94.5C 258.338,94.8417 258.672,95.5084 258.5,96.5C 257.903,96.7352 257.57,97.2352 257.5,98C 259.237,104.781 260.737,111.614 262,118.5C 262.202,131.012 262.368,143.345 262.5,155.5C 262.5,155.833 262.5,156.167 262.5,156.5C 261.069,156.881 260.236,157.881 260,159.5C 259.145,164.252 257.979,168.919 256.5,173.5C 256.624,174.107 256.957,174.44 257.5,174.5C 257.672,175.492 257.338,176.158 256.5,176.5C 255.11,177.316 253.943,178.983 253,181.5C 250.769,187.626 248.269,193.626 245.5,199.5C 242.37,206.964 237.703,213.297 231.5,218.5C 227.46,221.504 224.46,224.838 222.5,228.5C 219.071,232.262 215.071,235.262 210.5,237.5C 206.975,238.759 203.975,240.759 201.5,243.5C 195.849,245.659 190.516,248.326 185.5,251.5C 185.5,252.167 185.167,252.5 184.5,252.5C 184.44,251.957 184.107,251.624 183.5,251.5C 160.698,260.623 137.198,262.956 113,258.5C 111.615,258.514 110.449,258.848 109.5,259.5C 108.508,259.672 107.842,259.338 107.5,258.5C 100.638,255.474 92.9715,252.808 84.5,250.5C 61.997,241.664 44.3303,226.997 31.5,206.5C 29.6007,202.413 27.4341,198.413 25,194.5C 24.4054,193.101 24.5721,191.768 25.5,190.5C 24.5,189.667 23.5,188.833 22.5,188C 23.7002,186.048 23.2002,184.548 21,183.5C 19.984,184.634 19.3173,184.301 19,182.5C 14.2734,170.594 11.2734,158.26 10,145.5C 9.51722,146.448 9.35055,147.448 9.5,148.5C 8.56552,147.432 8.23219,146.099 8.5,144.5C 9.04332,135.381 10.0433,126.215 11.5,117C 11.5154,114.442 11.1821,111.942 10.5,109.5C 10.3284,108.508 10.6618,107.842 11.5,107.5C 13.1026,104.466 14.4359,100.632 15.5,96C 15.4301,95.2352 15.0967,94.7352 14.5,94.5C 23.9868,65.3592 41.6535,42.6925 67.5,26.5C 75.0835,22.8856 82.0835,19.219 88.5,15.5C 98.9485,10.8698 109.948,7.86978 121.5,6.5 Z M 135.5,60.5 C 143.212,61.2355 150.879,61.2355 158.5,60.5C 159.308,60.8076 159.975,61.3076 160.5,62C 157.101,66.7558 158.101,68.2558 163.5,66.5C 163.5,66.8333 163.5,67.1667 163.5,67.5C 165.271,76.2924 164.271,84.7924 160.5,93C 161.793,93.49 163.127,93.6567 164.5,93.5C 164.5,94.1667 164.833,94.5 165.5,94.5C 165.549,100.186 163.549,105.02 159.5,109C 157.029,118.622 151.696,126.122 143.5,131.5C 138.833,131.5 134.167,131.5 129.5,131.5C 120.593,126.379 115.093,118.712 113,108.5C 108.363,104.554 106.53,99.5543 107.5,93.5C 108.833,93.5 110.167,93.5 111.5,93.5C 110.003,86.7962 110.17,80.1295 112,73.5C 118.818,68.842 125.984,64.842 133.5,61.5C 134.492,61.6716 135.158,61.3382 135.5,60.5 Z M 128.5,132.5 C 133.5,133.833 138.5,133.833 143.5,132.5C 148.715,130.124 152.882,126.457 156,121.5C 158.854,113.724 162.354,106.391 166.5,99.5C 171.537,99.9075 176.537,100.574 181.5,101.5C 183.663,103.083 185.996,104.416 188.5,105.5C 189.517,107.599 190.85,108.599 192.5,108.5C 191.113,106.79 189.779,105.123 188.5,103.5C 188.5,102.833 188.5,102.167 188.5,101.5C 195.154,100.693 201.82,100.526 208.5,101C 210.193,101.847 211.86,102.68 213.5,103.5C 213.5,104.167 213.833,104.5 214.5,104.5C 216.122,107.455 218.122,110.122 220.5,112.5C 229.691,128.242 235.191,145.242 237,163.5C 238.308,167.76 239.808,171.926 241.5,176C 240.833,177 240.167,178 239.5,179C 231.999,180.01 224.665,179.51 217.5,177.5C 217.5,176.833 217.167,176.5 216.5,176.5C 215.611,172.569 214.278,168.902 212.5,165.5C 210.348,160.056 211.681,155.722 216.5,152.5C 212.811,147.101 209.144,141.767 205.5,136.5C 204.801,133.427 203.801,130.427 202.5,127.5C 204.938,126.069 206.604,124.069 207.5,121.5C 198.97,129.016 188.97,132.016 177.5,130.5C 177.5,131.833 177.5,133.167 177.5,134.5C 174.835,142.843 169.835,149.51 162.5,154.5C 161.417,154.539 160.417,154.873 159.5,155.5C 158.61,165.275 153.61,168.441 144.5,165C 142.84,163.512 141.84,161.679 141.5,159.5C 141.5,159.167 141.5,158.833 141.5,158.5C 138.645,155.393 135.312,154.893 131.5,157C 130.594,158.699 130.261,160.533 130.5,162.5C 126.018,166.902 121.018,167.569 115.5,164.5C 114.545,162.254 113.878,159.921 113.5,157.5C 113.5,157.167 113.5,156.833 113.5,156.5C 109.025,153.42 104.692,150.087 100.5,146.5C 97.5238,141.576 95.5238,136.243 94.5,130.5C 90.5,130.5 86.5,130.5 82.5,130.5C 82.1583,129.662 81.4916,129.328 80.5,129.5C 75.8146,128.654 71.4812,126.987 67.5,124.5C 68.1667,125.5 68.8333,126.5 69.5,127.5C 69.5,127.833 69.5,128.167 69.5,128.5C 67.4236,133.651 65.0903,138.651 62.5,143.5C 59.8394,146.171 57.5061,149.171 55.5,152.5C 58.6516,154.316 60.6516,156.983 61.5,160.5C 58.8409,165.144 57.1743,170.144 56.5,175.5C 54.9897,176.836 53.3231,178.003 51.5,179C 45.1667,179.667 38.8333,179.667 32.5,179C 31.9032,177.938 31.5698,176.772 31.5,175.5C 32.7037,171.889 33.7037,168.222 34.5,164.5C 35.404,163.791 35.7373,162.791 35.5,161.5C 37.6349,139.908 45.3015,120.575 58.5,103.5C 59.1667,103.5 59.5,103.167 59.5,102.5C 68.1775,99.8558 76.8442,100.022 85.5,103C 84.6195,103.708 83.9528,104.542 83.5,105.5C 90.3019,101.34 97.6353,99.6738 105.5,100.5C 110.054,106.942 113.554,113.942 116,121.5C 119.204,124.369 122.037,127.535 124.5,131C 125.745,131.791 127.078,132.291 128.5,132.5 Z" />
   </g>
   <g>
      <path style="opacity:0.608" fill="#2e3f5d"
         d="M 164.5,9.5 C 150.05,8.12351 135.717,7.12351 121.5,6.5C 136.129,5.0446 150.463,6.0446 164.5,9.5 Z" />
   </g>
   <g>
      <path style="opacity:0.129" fill="#2e3f5d"
         d="M 164.5,9.5 C 167.63,9.69973 170.63,10.3664 173.5,11.5C 173.265,12.0967 172.765,12.4301 172,12.5C 169.865,11.8729 167.698,11.3729 165.5,11C 164.944,10.6174 164.611,10.1174 164.5,9.5 Z" />
   </g>
   <g>
      <path style="opacity:0.749" fill="#2e3f5d"
         d="M 181.5,14.5 C 188.097,16.4651 194.097,19.4651 199.5,23.5C 192.694,20.7649 186.694,17.7649 181.5,14.5 Z" />
   </g>
   <g>
      <path style="opacity:0.486" fill="#2e3f5d"
         d="M 88.5,15.5 C 82.0835,19.219 75.0835,22.8856 67.5,26.5C 73.7347,21.5476 80.7347,17.8809 88.5,15.5 Z" />
   </g>
   <g>
      <path style="opacity:0.835" fill="#2e3f5d"
         d="M 201.5,24.5 C 205.049,25.7232 208.049,27.7232 210.5,30.5C 206.877,29.4181 203.877,27.4181 201.5,24.5 Z" />
   </g>
   <g>
      <path style="opacity:0.957" fill="#2e3f5d"
         d="M 220.5,38.5 C 226.882,42.5485 231.882,47.8818 235.5,54.5C 230.478,49.1463 225.478,43.813 220.5,38.5 Z" />
   </g>
   <g>
      <path style="opacity:0.773" fill="#2e3f5d"
         d="M 163.5,66.5 C 158.101,68.2558 157.101,66.7558 160.5,62C 159.975,61.3076 159.308,60.8076 158.5,60.5C 150.879,61.2355 143.212,61.2355 135.5,60.5C 143.085,59.3479 151.419,59.1813 160.5,60C 160.997,63.0022 162.663,65.0022 165.5,66C 164.906,66.4643 164.239,66.631 163.5,66.5 Z" />
   </g>
   <g>
      <path style="opacity:0.306" fill="#2e3f5d"
         d="M 133.5,61.5 C 125.984,64.842 118.818,68.842 112,73.5C 110.17,80.1295 110.003,86.7962 111.5,93.5C 110.167,93.5 108.833,93.5 107.5,93.5C 107.783,92.7109 108.283,92.0442 109,91.5C 109.129,85.0862 109.796,78.7528 111,72.5C 112.908,70.2622 114.908,68.9289 117,68.5C 121.116,65.8609 125.283,63.3609 129.5,61C 131.066,60.235 132.399,60.4017 133.5,61.5 Z" />
   </g>
   <g>
      <path style="opacity:0.198" fill="#2e3f5d"
         d="M 235.5,54.5 C 245.924,66.0041 253.257,79.3375 257.5,94.5C 254.193,86.8571 250.193,78.8571 245.5,70.5C 243.5,69.1667 241.5,67.8333 239.5,66.5C 240.485,64.9017 240.651,63.235 240,61.5C 237.98,59.4494 236.48,57.1161 235.5,54.5 Z" />
   </g>
   <g>
      <path style="opacity:0.525" fill="#2e3f5d"
         d="M 163.5,67.5 C 164.814,69.9151 165.481,72.7485 165.5,76C 165.898,81.3143 164.898,86.3143 162.5,91C 163.381,91.7083 164.047,92.5416 164.5,93.5C 163.127,93.6567 161.793,93.49 160.5,93C 164.271,84.7924 165.271,76.2924 163.5,67.5 Z" />
   </g>
   <g>
      <path style="opacity:0.922" fill="#2e3f5d"
         d="M 14.5,94.5 C 15.0967,94.7352 15.4301,95.2352 15.5,96C 14.4359,100.632 13.1026,104.466 11.5,107.5C 12.0333,103.035 13.0333,98.7019 14.5,94.5 Z" />
   </g>
   <g>
      <path style="opacity:0.576" fill="#2e3f5d"
         d="M 165.5,94.5 C 166.434,95.5676 166.768,96.901 166.5,98.5C 171.939,97.9819 176.939,98.9819 181.5,101.5C 176.537,100.574 171.537,99.9075 166.5,99.5C 162.354,106.391 158.854,113.724 156,121.5C 152.882,126.457 148.715,130.124 143.5,132.5C 143.5,132.167 143.5,131.833 143.5,131.5C 151.696,126.122 157.029,118.622 159.5,109C 163.549,105.02 165.549,100.186 165.5,94.5 Z" />
   </g>
   <g>
      <path style="opacity:0.976" fill="#2e3f5d"
         d="M 213.5,103.5 C 211.86,102.68 210.193,101.847 208.5,101C 201.82,100.526 195.154,100.693 188.5,101.5C 191.831,99.8055 196.664,98.8055 203,98.5C 206.357,98.594 209.523,99.4273 212.5,101C 213.252,101.671 213.586,102.504 213.5,103.5 Z" />
   </g>
   <g>
      <path style="opacity:0.169" fill="#2e3f5d"
         d="M 83.5,105.5 C 82.8783,106.627 82.045,107.627 81,108.5C 80.4808,106.511 81.3141,105.511 83.5,105.5 Z" />
   </g>
   <g>
      <path style="opacity:0.997" fill="#2e3f5d"
         d="M 214.5,104.5 C 216.34,106.168 218.34,107.668 220.5,109C 219.829,109.986 219.829,111.153 220.5,112.5C 218.122,110.122 216.122,107.455 214.5,104.5 Z" />
   </g>
   <g>
      <path style="opacity:0.145" fill="#2e3f5d"
         d="M 188.5,103.5 C 189.779,105.123 191.113,106.79 192.5,108.5C 190.85,108.599 189.517,107.599 188.5,105.5C 188.5,104.833 188.5,104.167 188.5,103.5 Z" />
   </g>
   <g>
      <path style="opacity:0.58" fill="#2e3f5d"
         d="M 107.5,93.5 C 106.53,99.5543 108.363,104.554 113,108.5C 115.093,118.712 120.593,126.379 129.5,131.5C 129.5,132.167 129.167,132.5 128.5,132.5C 127.078,132.291 125.745,131.791 124.5,131C 122.037,127.535 119.204,124.369 116,121.5C 113.554,113.942 110.054,106.942 105.5,100.5C 97.6353,99.6738 90.3019,101.34 83.5,105.5C 83.9528,104.542 84.6195,103.708 85.5,103C 76.8442,100.022 68.1775,99.8558 59.5,102.5C 60.0577,101.21 61.0577,100.377 62.5,100C 69.5496,99.7981 76.5496,99.2981 83.5,98.5C 85.3325,99.2485 86.9991,100.248 88.5,101.5C 93.9182,99.1199 99.5849,98.1199 105.5,98.5C 105.12,96.302 105.787,94.6354 107.5,93.5 Z" />
   </g>
   <g>
      <path style="opacity:0.114" fill="#2e3f5d"
         d="M 65.5,122.5 C 63.9153,121.998 63.4153,120.998 64,119.5C 65.0386,120.244 65.5386,121.244 65.5,122.5 Z" />
   </g>
   <g>
      <path style="opacity:0.302" fill="#2e3f5d"
         d="M 58.5,103.5 C 45.3015,120.575 37.6349,139.908 35.5,161.5C 35.2237,145.357 39.7237,130.024 49,115.5C 49.1953,113.793 49.1953,112.126 49,110.5C 50.073,111.28 51.2396,111.113 52.5,110C 53.9984,107.336 55.9984,105.17 58.5,103.5 Z" />
   </g>
   <g>
      <path style="opacity:0.231" fill="#2e3f5d"
         d="M 67.5,124.5 C 71.4812,126.987 75.8146,128.654 80.5,129.5C 80.0831,130.124 79.4164,130.457 78.5,130.5C 75.4083,129.692 72.4083,128.692 69.5,127.5C 68.8333,126.5 68.1667,125.5 67.5,124.5 Z" />
   </g>
   <g>
      <path style="opacity:0.863" fill="#2e3f5d"
         d="M 207.5,121.5 C 206.604,124.069 204.938,126.069 202.5,127.5C 203.801,130.427 204.801,133.427 205.5,136.5C 203.473,134.135 201.807,131.469 200.5,128.5C 193.875,130.97 187.208,131.97 180.5,131.5C 179.029,132.381 178.196,133.714 178,135.5C 177.601,135.272 177.435,134.938 177.5,134.5C 177.5,133.167 177.5,131.833 177.5,130.5C 188.97,132.016 198.97,129.016 207.5,121.5 Z" />
   </g>
   <g>
      <path style="opacity:0.529" fill="#2e3f5d"
         d="M 10.5,109.5 C 11.1821,111.942 11.5154,114.442 11.5,117C 10.0433,126.215 9.04332,135.381 8.5,144.5C 8.10291,132.752 8.76958,121.085 10.5,109.5 Z" />
   </g>
   <g>
      <path style="opacity:0.71" fill="#2e3f5d"
         d="M 258.5,96.5 C 264.171,115.877 265.504,135.543 262.5,155.5C 262.368,143.345 262.202,131.012 262,118.5C 260.737,111.614 259.237,104.781 257.5,98C 257.57,97.2352 257.903,96.7352 258.5,96.5 Z" />
   </g>
   <g>
      <path style="opacity:0.584" fill="#2e3f5d"
         d="M 129.5,131.5 C 134.167,131.5 138.833,131.5 143.5,131.5C 143.5,131.833 143.5,132.167 143.5,132.5C 138.5,133.833 133.5,133.833 128.5,132.5C 129.167,132.5 129.5,132.167 129.5,131.5 Z" />
   </g>
   <g>
      <path style="opacity:0.496" fill="#2e3f5d"
         d="M 69.5,128.5 C 69.9595,130.708 69.9595,132.874 69.5,135C 67.2674,137.996 64.9341,140.829 62.5,143.5C 65.0903,138.651 67.4236,133.651 69.5,128.5 Z" />
   </g>
   <g>
      <path style="opacity:0.325" fill="#2e3f5d"
         d="M 82.5,130.5 C 86.5,130.5 90.5,130.5 94.5,130.5C 95.5238,136.243 97.5238,141.576 100.5,146.5C 96.3327,142.492 93.9994,137.492 93.5,131.5C 89.6286,131.815 85.9619,131.482 82.5,130.5 Z" />
   </g>
   <g>
      <path style="opacity:0.165" fill="#2e3f5d"
         d="M 220.5,112.5 C 221.885,113.574 223.051,114.907 224,116.5C 228.847,124.93 232.347,133.597 234.5,142.5C 236.639,154.118 239.306,165.285 242.5,176C 242.325,177.658 241.658,178.991 240.5,180C 233.833,180.667 227.167,180.667 220.5,180C 219.058,179.623 218.058,178.79 217.5,177.5C 224.665,179.51 231.999,180.01 239.5,179C 240.167,178 240.833,177 241.5,176C 239.808,171.926 238.308,167.76 237,163.5C 235.191,145.242 229.691,128.242 220.5,112.5 Z" />
   </g>
   <g>
      <path style="opacity:0.614" fill="#2e3f5d"
         d="M 100.5,146.5 C 104.692,150.087 109.025,153.42 113.5,156.5C 107.647,154.963 103.314,151.629 100.5,146.5 Z" />
   </g>
   <g>
      <path style="opacity:0.569" fill="#2e3f5d"
         d="M 141.5,158.5 C 136.382,155.551 132.716,156.884 130.5,162.5C 130.261,160.533 130.594,158.699 131.5,157C 135.312,154.893 138.645,155.393 141.5,158.5 Z" />
   </g>
   <g>
      <path style="opacity:0.52" fill="#2e3f5d"
         d="M 162.5,154.5 C 160.725,157.639 159.225,160.972 158,164.5C 149.953,170.633 144.119,169.466 140.5,161C 140.57,160.235 140.903,159.735 141.5,159.5C 141.84,161.679 142.84,163.512 144.5,165C 153.61,168.441 158.61,165.275 159.5,155.5C 160.417,154.873 161.417,154.539 162.5,154.5 Z" />
   </g>
   <g>
      <path style="opacity:0.914" fill="#2e3f5d"
         d="M 262.5,156.5 C 261.146,162.584 259.479,168.584 257.5,174.5C 256.957,174.44 256.624,174.107 256.5,173.5C 257.979,168.919 259.145,164.252 260,159.5C 260.236,157.881 261.069,156.881 262.5,156.5 Z" />
   </g>
   <g>
      <path style="opacity:0.706" fill="#2e3f5d"
         d="M 31.5,206.5 C 18.623,189.389 11.2897,170.055 9.5,148.5C 9.35055,147.448 9.51722,146.448 10,145.5C 11.2734,158.26 14.2734,170.594 19,182.5C 19.3173,184.301 19.984,184.634 21,183.5C 23.2002,184.548 23.7002,186.048 22.5,188C 23.5,188.833 24.5,189.667 25.5,190.5C 24.5721,191.768 24.4054,193.101 25,194.5C 27.4341,198.413 29.6007,202.413 31.5,206.5 Z" />
   </g>
   <g>
      <path style="opacity:0.78" fill="#2e3f5d"
         d="M 113.5,157.5 C 113.878,159.921 114.545,162.254 115.5,164.5C 112.782,162.618 112.115,160.285 113.5,157.5 Z" />
   </g>
   <g>
      <path style="opacity:0.533" fill="#2e3f5d"
         d="M 62.5,143.5 C 62.33,144.822 62.6634,145.989 63.5,147C 61.6141,149.101 59.9474,150.601 58.5,151.5C 58.559,153.767 59.3923,154.433 61,153.5C 61.5,154 62,154.5 62.5,155C 61.5547,156.911 61.5547,158.911 62.5,161C 60.3859,165.857 58.3859,170.69 56.5,175.5C 57.1743,170.144 58.8409,165.144 61.5,160.5C 60.6516,156.983 58.6516,154.316 55.5,152.5C 57.5061,149.171 59.8394,146.171 62.5,143.5 Z" />
   </g>
   <g>
      <path style="opacity:0.259" fill="#2e3f5d"
         d="M 34.5,164.5 C 33.7037,168.222 32.7037,171.889 31.5,175.5C 31.5698,176.772 31.9032,177.938 32.5,179C 38.8333,179.667 45.1667,179.667 51.5,179C 53.3231,178.003 54.9897,176.836 56.5,175.5C 55.9278,177.255 55.0945,178.922 54,180.5C 46.7035,180.595 39.2035,180.428 31.5,180C 30.5697,178.806 29.9031,177.473 29.5,176C 31,171.5 32.5,167 34,162.5C 34.4643,163.094 34.631,163.761 34.5,164.5 Z" />
   </g>
   <g>
      <path style="opacity:0.961" fill="#2e3f5d"
         d="M 130.5,162.5 C 127.256,168.442 122.589,169.775 116.5,166.5C 115.702,166.043 115.369,165.376 115.5,164.5C 121.018,167.569 126.018,166.902 130.5,162.5 Z" />
   </g>
   <g>
      <path style="opacity:0.22" fill="#2e3f5d"
         d="M 212.5,165.5 C 214.278,168.902 215.611,172.569 216.5,176.5C 213.81,173.453 212.476,169.787 212.5,165.5 Z" />
   </g>
   <g>
      <path style="opacity:0.192" fill="#2e3f5d"
         d="M 256.5,176.5 C 254.15,184.864 250.483,192.531 245.5,199.5C 248.269,193.626 250.769,187.626 253,181.5C 253.943,178.983 255.11,177.316 256.5,176.5 Z" />
   </g>
   <g>
      <path style="opacity:0.129" fill="#2e3f5d"
         d="M 231.5,218.5 C 229.234,222.436 226.234,225.769 222.5,228.5C 224.46,224.838 227.46,221.504 231.5,218.5 Z" />
   </g>
   <g>
      <path style="opacity:0.212" fill="#2e3f5d"
         d="M 210.5,237.5 C 208.049,240.277 205.049,242.277 201.5,243.5C 203.975,240.759 206.975,238.759 210.5,237.5 Z" />
   </g>
   <g>
      <path style="opacity:0.114" fill="#2e3f5d"
         d="M 201.5,243.5 C 196.753,247.207 191.419,249.874 185.5,251.5C 190.516,248.326 195.849,245.659 201.5,243.5 Z" />
   </g>
   <g>
      <path style="opacity:0.863" fill="#2e3f5d"
         d="M 84.5,250.5 C 92.9715,252.808 100.638,255.474 107.5,258.5C 99.3367,257.002 91.6701,254.336 84.5,250.5 Z" />
   </g>
   <g>
      <path style="opacity:0.047" fill="#2e3f5d"
         d="M 184.5,252.5 C 160.214,262.163 135.214,264.496 109.5,259.5C 110.449,258.848 111.615,258.514 113,258.5C 137.198,262.956 160.698,260.623 183.5,251.5C 184.107,251.624 184.44,251.957 184.5,252.5 Z" />
   </g>
</svg>