<?xml version="1.0" encoding="UTF-8"?>
<svg version="1.1" xmlns="http://www.w3.org/2000/svg" width="800" height="800">
   <path
      d="M0 0 C264 0 528 0 800 0 C800 264 800 528 800 800 C536 800 272 800 0 800 C0 536 0 272 0 0 Z "
      fill="transparent" transform="translate(0,0)" />
   <path
      d="M0 0 C1.59702581 1.17012853 3.10198075 2.28948075 4.5 3.6875 C4.54063832 5.35367115 4.542721 7.02138095 4.5 8.6875 C2.02897454 7.54239064 -0.12844949 6.26571045 -2.3984375 4.7421875 C-13.21057235 -2.2376181 -23.86049281 -3.07734875 -36.5 -1.3125 C-40.71745658 -0.24066021 -43.92044592 1.24095261 -47.5 3.6875 C-48.29277344 4.18378906 -49.08554687 4.68007813 -49.90234375 5.19140625 C-56.19978143 9.53988651 -59.89665105 15.01788663 -63.5 21.6875 C-63.86222656 22.31011719 -64.22445313 22.93273437 -64.59765625 23.57421875 C-69.33244544 33.37413126 -67.18416839 46.15101446 -63.8125 56 C-62.7598519 58.91743654 -61.6435709 61.80468981 -60.5 64.6875 C-59.87351562 66.34265625 -59.87351562 66.34265625 -59.234375 68.03125 C-54.90671548 78.99465412 -49.22367111 88.92331952 -42.5 98.5625 C-42.01394287 99.2639917 -41.52788574 99.9654834 -41.02709961 100.68823242 C-35.9055449 107.8707028 -30.18957064 113.70702137 -22.6875 118.375 C-22.08220459 118.7572876 -21.47690918 119.1395752 -20.85327148 119.53344727 C-15.95065804 122.55777409 -10.98861871 124.90740745 -5.5 126.6875 C-4.30375 127.079375 -3.1075 127.47125 -1.875 127.875 C1.92862589 128.79068772 5.61103046 129.27813479 9.5 129.6875 C3.15961216 151.23658819 -3.79476965 172.98117262 -13.43359375 193.30859375 C-14.54794801 195.79446095 -15.43528516 198.29652001 -16.3125 200.875 C-18.17062592 206.11756957 -20.56783531 211.01326371 -23.09399414 215.95556641 C-25.60866739 220.88048955 -28.01663131 225.84616599 -30.37792969 230.84643555 C-75.20218008 325.7031633 -75.20218008 325.7031633 -113.31738281 339.72387695 C-121.45464627 342.48988136 -128.80666604 343.35880424 -137.375 343.25 C-138.60299316 343.23904297 -139.83098633 343.22808594 -141.09619141 343.21679688 C-150.44241979 342.99388431 -158.03718041 341.88326615 -166.5 337.6875 C-167.09409668 337.39810547 -167.68819336 337.10871094 -168.30029297 336.81054688 C-184.63748416 328.69579122 -194.74999702 316.2491393 -204.8828125 301.453125 C-212.792694 289.9965748 -220.92148591 278.80782903 -230.5 268.6875 C-231.63141548 267.40144915 -232.75657946 266.10986783 -233.875 264.8125 C-241.97898589 255.52827414 -250.41459968 246.60647333 -259.14428711 237.9128418 C-260.70089389 236.36165273 -262.25200171 234.80510608 -263.80273438 233.24804688 C-269.19416128 227.85223134 -274.64866004 222.5882364 -280.5 217.6875 C-281.14880127 217.14262939 -281.79760254 216.59775879 -282.46606445 216.03637695 C-284.49069784 214.34823818 -286.52443036 212.67188768 -288.5625 211 C-289.29710449 210.39696045 -290.03170898 209.7939209 -290.78857422 209.17260742 C-293.02337905 207.34135575 -295.26096065 205.51357099 -297.5 203.6875 C-298.16016113 203.14867187 -298.82032227 202.60984375 -299.50048828 202.0546875 C-312.60341346 191.38741218 -326.16976901 181.50308339 -340.13671875 172 C-342.6413604 170.2911936 -345.09642102 168.53734307 -347.5 166.6875 C-364.0116045 173.3989143 -376.75917741 200.01649721 -385.5 214.6875 C-386.04301758 215.59838379 -386.58603516 216.50926758 -387.14550781 217.44775391 C-393.79667174 228.64749129 -400.27422844 239.90642861 -406.28125 251.46484375 C-408.83080461 256.35732698 -411.51285181 261.17513565 -414.1875 266 C-417.56689447 272.11014284 -420.8409749 278.24245462 -423.91796875 284.51171875 C-427.25121089 291.20289371 -430.75524543 297.80525045 -434.28027344 304.39697266 C-435.05063044 305.84362786 -435.81510779 307.29344338 -436.57128906 308.74755859 C-444.30376401 323.61159767 -454.55588937 333.79193453 -470.48046875 339.3828125 C-482.80967434 342.76917071 -497.57221084 341.8313552 -508.9375 336.125 C-522.02700059 328.56421155 -532.2515066 316.74576625 -536.21875 302.01953125 C-539.34691798 286.76971236 -537.09046002 273.46264801 -528.98046875 260.203125 C-528.00162194 258.74647698 -527.00436652 257.30201487 -525.98828125 255.87109375 C-524.37720758 253.50733999 -523.03292046 251.08655326 -521.6875 248.5625 C-519.26028527 244.01386138 -516.6730228 239.59371566 -514 235.1875 C-510.32106068 229.1109124 -506.84574815 222.95488739 -503.5 216.6875 C-498.96413065 208.27802321 -494.2890176 199.95497596 -489.5 191.6875 C-489.04238281 190.8944043 -488.58476562 190.10130859 -488.11328125 189.28417969 C-479.71574638 174.76481986 -470.8186038 160.63271344 -461.5 146.6875 C-460.98131348 145.91083984 -460.46262695 145.13417969 -459.92822266 144.33398438 C-453.78690301 135.17805744 -447.34103977 126.33177925 -440.5 117.6875 C-439.49646484 116.37458984 -439.49646484 116.37458984 -438.47265625 115.03515625 C-428.81703836 102.71080712 -417.26091342 90.78438877 -404.5 81.6875 C-403.59507812 81.0275 -402.69015625 80.3675 -401.7578125 79.6875 C-394.08322922 74.31325601 -386.13188465 70.24385506 -377.5 66.6875 C-376.49453125 66.25050781 -375.4890625 65.81351562 -374.453125 65.36328125 C-356.20421281 58.76310362 -332.96185727 60.66342028 -315.45996094 68.61425781 C-296.03165884 77.7799197 -278.24465891 90.69827281 -260.5 102.6875 C-259.86336426 103.11659668 -259.22672852 103.54569336 -258.57080078 103.98779297 C-249.31279701 110.24461898 -240.39231413 116.92715463 -231.5 123.6875 C-230.64921875 124.33138672 -230.64921875 124.33138672 -229.78125 124.98828125 C-221.13858948 131.53260352 -212.71551881 138.3273221 -204.32910156 145.19482422 C-202.71267791 146.51393983 -201.08745479 147.82225675 -199.4609375 149.12890625 C-193.52271244 153.91200108 -187.87674851 158.9361182 -182.28515625 164.11328125 C-176.2669116 169.67572617 -170.13354403 174.87112362 -163.5 179.6875 C-146.19049731 156.52689781 -133.07755946 129.73113256 -120.0625 104 C-119.74458496 103.37722168 -119.42666992 102.75444336 -119.09912109 102.11279297 C-117.19699855 98.31571025 -115.62686963 94.48537937 -114.17700195 90.50268555 C-113.3382635 88.25385021 -112.34662237 86.10281038 -111.3125 83.9375 C-107.34932122 75.33860302 -103.9505216 66.50120635 -100.5 57.6875 C-100.09523438 56.66398437 -99.69046875 55.64046875 -99.2734375 54.5859375 C-97.4553798 49.81168842 -96.04167733 45.01489777 -94.75366211 40.0769043 C-90.04468574 22.17913664 -81.27176714 8.85582154 -65.5 -1.3125 C-64.89542969 -1.72113281 -64.29085938 -2.12976563 -63.66796875 -2.55078125 C-62.01550783 -3.59211307 -60.25310513 -4.45132555 -58.5 -5.3125 C-57.38625 -5.869375 -57.38625 -5.869375 -56.25 -6.4375 C-38.25697071 -13.96946575 -16.04016556 -10.36711796 0 0 Z "
      fill="#2e3f5d" transform="translate(609.5,359.3125)" />
   <path
      d="M0 0 C3.57155377 3.01875191 6.88800399 6.26714329 10.18701172 9.58154297 C10.86119141 10.20802734 11.53537109 10.83451172 12.22998047 11.47998047 C22.81781377 21.43675085 32.08497132 37.24896741 35.18701172 51.58154297 C35.42677734 52.62375 35.42677734 52.62375 35.67138672 53.68701172 C35.93701172 55.76904297 35.93701172 55.76904297 35.18701172 59.58154297 C33.16119907 61.35184771 31.03008601 62.61048 28.70654297 63.96435547 C20.86945937 68.99466959 15.72428764 76.97842866 13.63232422 85.96411133 C12.98473847 91.22468043 13.22832316 96.40802588 13.37060547 101.69873047 C13.41247308 104.10364185 13.45211789 106.50859277 13.48974609 108.91357422 C13.55139925 112.68890902 13.62467492 116.46209618 13.7355957 120.23632812 C13.83889876 123.89082285 13.89043816 127.5430881 13.93310547 131.19873047 C13.99974648 132.88033768 13.99974648 132.88033768 14.06773376 134.59591675 C14.08931317 140.57173804 13.60327851 143.8695035 9.31323242 148.21264648 C7.966126 149.36940919 6.5930071 150.49712025 5.18701172 151.58154297 C4.27435547 152.33564453 3.36169922 153.08974609 2.42138672 153.86669922 C-9.35316846 162.29031967 -20.93434273 168.49346163 -34.81298828 172.58154297 C-35.46396484 172.77876953 -36.11494141 172.97599609 -36.78564453 173.17919922 C-43.54266002 174.96407124 -50.39470402 174.95376848 -57.33984375 174.95214844 C-59.41377831 174.95649226 -61.48552611 174.99282781 -63.55908203 175.03076172 C-89.43681306 175.24590523 -111.90723879 163.050021 -130.08642578 145.37060547 C-141.70791262 133.01416294 -149.2546568 117.764615 -153.81298828 101.58154297 C-154.15450928 100.51766357 -154.49603027 99.45378418 -154.84790039 98.35766602 C-156.36848389 92.40804169 -156.18491082 86.45174702 -156.18359375 80.35107422 C-156.18792428 78.11459664 -156.22418107 75.88016688 -156.26220703 73.64404297 C-156.37202193 59.55901633 -153.35775101 47.16222628 -146.81298828 34.58154297 C-146.25998047 33.48197266 -145.70697266 32.38240234 -145.13720703 31.24951172 C-140.33102782 22.05619284 -134.18218325 14.83041453 -126.81298828 7.58154297 C-125.97638672 6.74623047 -125.13978516 5.91091797 -124.27783203 5.05029297 C-90.88490785 -26.65941064 -36.03779511 -28.19547395 0 0 Z "
      fill="#2e3f5d" transform="translate(601.81298828125,174.41845703125)" />
   <path
      d="M0 0 C9.7234678 6.58529174 17.59459189 14.12965705 20.03125 25.95703125 C22.85281176 45.35030084 22.50284705 65.31587982 22.46630859 84.86254883 C22.46092486 88.27755128 22.46630822 91.69242323 22.47265625 95.10742188 C22.48540216 129.61386611 22.48540216 129.61386611 19.9609375 145.01953125 C19.68796835 146.77721447 19.41585845 148.53503132 19.14453125 150.29296875 C19.00772949 151.1653418 18.87092773 152.03771484 18.72998047 152.93652344 C18.33659734 155.57760126 18.00139969 158.21993607 17.68359375 160.87109375 C14.4270704 187.46193506 5.63663439 216.74976642 -15.6640625 234.58203125 C-19.22722537 237.10826798 -22.88880508 239.38806403 -26.6640625 241.58203125 C-27.6746875 242.18015625 -28.6853125 242.77828125 -29.7265625 243.39453125 C-43.41822324 248.92945793 -59.71890988 248.02744709 -73.203125 242.55078125 C-98.80071924 230.82185262 -112.2583518 203.62912853 -121.59375 178.55859375 C-121.94695313 177.57632813 -122.30015625 176.5940625 -122.6640625 175.58203125 C-122.91414062 174.90914062 -123.16421875 174.23625 -123.421875 173.54296875 C-125.90350628 165.60873916 -126.25567658 154.28850249 -123.0390625 146.58203125 C-121.91796875 144.52734375 -121.91796875 144.52734375 -120.6640625 142.58203125 C-120.23996094 141.89882813 -119.81585937 141.215625 -119.37890625 140.51171875 C-113.74628211 132.25890455 -105.46582892 125.87492052 -95.6640625 123.58203125 C-85.06886398 122.2266944 -76.69079894 123.84410576 -67.6640625 129.58203125 C-63.06894347 133.14658269 -58.90092706 136.72673441 -55.6640625 141.58203125 C-55.6640625 142.57203125 -55.6640625 143.56203125 -55.6640625 144.58203125 C-55.0040625 144.58203125 -54.3440625 144.58203125 -53.6640625 144.58203125 C-53.67566406 143.76863281 -53.68726563 142.95523438 -53.69921875 142.1171875 C-53.74940422 135.74363278 -53.62622106 129.47548905 -53.16796875 123.1171875 C-52.50316427 112.81611808 -52.51345538 102.51949866 -52.53369141 92.20068359 C-52.53902 88.98269871 -52.53372961 85.7648555 -52.52734375 82.546875 C-52.52323693 69.31248375 -52.87744183 56.12800786 -53.54632568 42.91088867 C-54.20380247 29.90586834 -53.74842177 19.42276429 -44.6640625 9.20703125 C-33.41503491 -2.47717633 -15.29335801 -7.5930181 0 0 Z "
      fill="#2e3f5d" transform="translate(671.6640625,237.41796875)" />
   <path
      d="M0 0 C1.37671875 0.41572266 1.37671875 0.41572266 2.78125 0.83984375 C9.17396542 2.7267692 15.32895101 4.46631608 22 5 C15.65961216 26.54908819 8.70523035 48.29367262 -0.93359375 68.62109375 C-2.04794801 71.10696095 -2.93528516 73.60902001 -3.8125 76.1875 C-5.67062592 81.43006957 -8.06783531 86.32576371 -10.59399414 91.26806641 C-13.10866739 96.19298955 -15.51663131 101.15866599 -17.87792969 106.15893555 C-62.70218008 201.0156633 -62.70218008 201.0156633 -100.81738281 215.03637695 C-108.95464627 217.80238136 -116.30666604 218.67130424 -124.875 218.5625 C-126.71698975 218.54606445 -126.71698975 218.54606445 -128.59619141 218.52929688 C-137.94241979 218.30638431 -145.53718041 217.19576615 -154 213 C-154.59409668 212.71060547 -155.18819336 212.42121094 -155.80029297 212.12304688 C-166.583409 206.7670251 -175.63694134 199.57197625 -183 190 C-180 189 -180 189 -178.08984375 189.85546875 C-177.02443359 190.51482422 -177.02443359 190.51482422 -175.9375 191.1875 C-162.1530659 199.26027625 -147.5312674 201.1058517 -131.9375 197.75 C-120.78099063 194.76016622 -110.72911862 188.81161723 -103.55078125 179.671875 C-101.75162904 177.73223483 -99.88435688 176.55774029 -97.625 175.1875 C-88.05993667 169.08757647 -82.36322807 158.25183845 -76.26904297 148.92480469 C-75.06314083 147.09576805 -73.83606841 145.2837006 -72.59765625 143.4765625 C-66.32029859 134.28398769 -60.65343546 124.77972437 -55.04296875 115.16796875 C-52.67334816 111.11588104 -50.21380188 107.14322219 -47.6875 103.1875 C-44.30298464 97.74810031 -41.59184594 92.11476994 -38.93066406 86.30004883 C-36.91381529 81.89897544 -34.77349587 77.61942107 -32.4375 73.375 C-27.81568582 64.95443445 -23.83771649 56.23975186 -20 47.4375 C-18.36231832 43.68622914 -16.50109085 40.0749862 -14.625 36.4375 C-11.07406048 29.47606432 -8.35245552 22.30651103 -5.71289062 14.96044922 C-4.56001661 11.79004567 -3.34128322 8.64662036 -2.125 5.5 C-1.71507812 4.4378125 -1.30515625 3.375625 -0.8828125 2.28125 C-0.44582031 1.15203125 -0.44582031 1.15203125 0 0 Z "
      fill="#2e3f5d" transform="translate(597,484)" />
   <path
      d="M0 0 C1.59702581 1.17012853 3.10198075 2.28948075 4.5 3.6875 C4.54063832 5.35367115 4.542721 7.02138095 4.5 8.6875 C2.02897454 7.54239064 -0.12844949 6.26571045 -2.3984375 4.7421875 C-13.21057235 -2.2376181 -23.86049281 -3.07734875 -36.5 -1.3125 C-40.71745658 -0.24066021 -43.92044592 1.24095261 -47.5 3.6875 C-48.68916016 4.43193359 -48.68916016 4.43193359 -49.90234375 5.19140625 C-58.4904009 11.12159546 -63.36330784 19.90840091 -66.5 29.6875 C-67.49 29.6875 -68.48 29.6875 -69.5 29.6875 C-73.38953321 38.35823807 -76.04177023 46.8458806 -78.01953125 56.125 C-81.98425961 74.69153279 -89.4830311 93.47160426 -97.21875 110.76953125 C-98.5277956 113.75080278 -99.67901429 116.76051313 -100.8125 119.8125 C-107.96647037 138.637531 -117.05030408 156.7092149 -126.9206543 174.23852539 C-129.32556033 178.52090897 -131.60437551 182.8295642 -133.75 187.25 C-136.25119849 192.37388375 -139.1951909 197.04670425 -142.5 201.6875 C-149.65878315 195.86058348 -156.02233121 189.24670588 -162.5 182.6875 C-163.16 182.0275 -163.82 181.3675 -164.5 180.6875 C-164.06792236 180.15890381 -163.63584473 179.63030762 -163.19067383 179.08569336 C-158.6493063 173.40728641 -154.8224985 167.53964043 -151.1875 161.25 C-150.34674927 159.80983521 -150.34674927 159.80983521 -149.48901367 158.34057617 C-139.1272484 140.5234124 -129.36518562 122.39166679 -120.0625 104 C-119.74458496 103.37722168 -119.42666992 102.75444336 -119.09912109 102.11279297 C-117.19699855 98.31571025 -115.62686963 94.48537937 -114.17700195 90.50268555 C-113.3382635 88.25385021 -112.34662237 86.10281038 -111.3125 83.9375 C-107.34932122 75.33860302 -103.9505216 66.50120635 -100.5 57.6875 C-100.09523438 56.66398437 -99.69046875 55.64046875 -99.2734375 54.5859375 C-97.4553798 49.81168842 -96.04167733 45.01489777 -94.75366211 40.0769043 C-90.04468574 22.17913664 -81.27176714 8.85582154 -65.5 -1.3125 C-64.89542969 -1.72113281 -64.29085937 -2.12976563 -63.66796875 -2.55078125 C-62.01550783 -3.59211307 -60.25310513 -4.45132555 -58.5 -5.3125 C-57.7575 -5.68375 -57.015 -6.055 -56.25 -6.4375 C-38.25697071 -13.96946575 -16.04016556 -10.36711796 0 0 Z "
      fill="#2e3f5d" transform="translate(609.5,359.3125)" />
   <path
      d="M0 0 C1.72900391 1.30102539 1.72900391 1.30102539 3 3 C3.65445476 9.10824445 3.65445476 9.10824445 1.78735352 11.65234375 C-0.47507641 13.35820541 -2.17642544 13.64261951 -4.97265625 14.0625 C-5.95556641 14.21976563 -6.93847656 14.37703125 -7.95117188 14.5390625 C-9.4912793 14.76722656 -9.4912793 14.76722656 -11.0625 15 C-17.81269055 16.0271083 -24.27952075 17.20692618 -30.78051758 19.32861328 C-33.0514117 20.01555188 -35.2885447 20.47135207 -37.625 20.875 C-44.3073128 22.12925114 -50.71520251 24.33988874 -57.17431641 26.42138672 C-59.49974877 27.15838521 -61.84188901 27.83037207 -64.1875 28.5 C-69.00019747 29.93662611 -73.65225996 31.71945604 -78.32421875 33.55859375 C-80.96624857 34.59462882 -83.61081688 35.60664315 -86.26953125 36.59765625 C-96.54166088 40.45388914 -106.30839839 44.86395879 -116 50 C-116.77069824 50.40202637 -117.54139648 50.80405273 -118.33544922 51.21826172 C-136.29627845 60.61707998 -152.8822528 71.47033811 -168 85 C-168.91394531 85.804375 -169.82789063 86.60875 -170.76953125 87.4375 C-173.20501752 89.59913099 -175.60968172 91.78863603 -178 94 C-178.58910156 94.53496094 -179.17820312 95.06992188 -179.78515625 95.62109375 C-187.95861334 103.36945378 -194.94040005 112.89245231 -200.87890625 122.42578125 C-202 124 -202 124 -204 125 C-207 125.25 -207 125.25 -210 125 C-212.48664568 121.27003147 -212.79460913 118.3200152 -212 114 C-210.588871 111.11284593 -208.71335227 108.73309406 -206.6875 106.25 C-206.14424072 105.55753174 -205.60098145 104.86506348 -205.04125977 104.15161133 C-199.99936455 97.80697646 -194.63537878 91.82187333 -189 86 C-188.09378906 85.05382812 -187.18757813 84.10765625 -186.25390625 83.1328125 C-180.19070079 76.92340208 -173.88614718 71.27937951 -167 66 C-166.38866211 65.52868652 -165.77732422 65.05737305 -165.14746094 64.57177734 C-147.80068798 51.30535181 -128.81163609 40.1777158 -109 31 C-108.35691895 30.7004541 -107.71383789 30.4009082 -107.05126953 30.09228516 C-97.58840867 25.72284116 -87.95929387 22.08633486 -78.09716797 18.72949219 C-76.08463572 18.02944023 -74.09062959 17.29277976 -72.09765625 16.5390625 C-55.01178661 10.13849328 -37.1495512 6.06374184 -19.375 2.0625 C-18.45831543 1.85101318 -17.54163086 1.63952637 -16.59716797 1.42163086 C-5.34125603 -1.02906825 -5.34125603 -1.02906825 0 0 Z "
      fill="#2e3f5d" transform="translate(458,114)" />
   <path
      d="M0 0 C1.78735303 3.07821911 1.55886742 5.46656068 1.125 8.9375 C-1.53186778 11.40244957 -4.22344515 12.59326008 -7.625 13.75 C-9.05972656 14.25273438 -9.05972656 14.25273438 -10.5234375 14.765625 C-11.62945312 15.15234375 -12.73546875 15.5390625 -13.875 15.9375 C-16.67224568 16.94346684 -19.46190122 17.96899096 -22.25 19 C-22.92772461 19.24532471 -23.60544922 19.49064941 -24.30371094 19.7434082 C-28.1029957 21.15001003 -31.43954999 22.80716984 -34.875 24.9375 C-36.29841146 25.53475398 -37.73702671 26.09685253 -39.1875 26.625 C-67.86950442 37.87782179 -95.49079198 56.04904441 -118.875 75.9375 C-119.99014692 76.86807319 -121.10607354 77.79771258 -122.22265625 78.7265625 C-123.37796198 79.69228043 -124.53291512 80.65842035 -125.6875 81.625 C-126.21504883 82.06465088 -126.74259766 82.50430176 -127.28613281 82.95727539 C-130.04233856 85.28298722 -132.62774251 87.67694781 -135.13671875 90.26953125 C-137.875 92.9375 -137.875 92.9375 -139.875 92.9375 C-140.101875 93.494375 -140.32875 94.05125 -140.5625 94.625 C-142.59789385 98.21117011 -145.59688798 100.74362718 -148.59375 103.54296875 C-162.00414725 116.43123988 -172.84960738 132.59333404 -182.37890625 148.48828125 C-183.875 150.9375 -183.875 150.9375 -184.875 151.9375 C-190.07677384 152.38982816 -190.07677384 152.38982816 -192.75 150.875 C-194.560983 147.75608483 -194.69502846 145.35836499 -193.875 141.9375 C-181.68588827 115.11316229 -156.45948938 88.3605515 -133.69921875 70.203125 C-130.85273899 67.91964193 -128.08575455 65.55911079 -125.3125 63.1875 C-112.68912347 52.68159308 -99.1878095 43.57192645 -85.05566406 35.23291016 C-82.94864584 33.98124886 -80.85966058 32.70392107 -78.7734375 31.41796875 C-14.18385812 -8.0375196 -14.18385812 -8.0375196 0 0 Z "
      fill="#2e3f5d" transform="translate(361.875,113.0625)" />
   <path
      d="M0 0 C5.40179064 1.88230954 10.85548937 4.85548937 14.9375 8.9375 C14.97813832 10.60367115 14.980221 12.27138095 14.9375 13.9375 C10.96882589 11.99407711 7.08333435 9.89666091 3.1875 7.8125 C2.49011719 7.43996094 1.79273438 7.06742187 1.07421875 6.68359375 C-0.63827295 5.76870092 -2.35042068 4.85316431 -4.0625 3.9375 C-4.0625 3.2775 -4.0625 2.6175 -4.0625 1.9375 C-4.7225 1.9375 -5.3825 1.9375 -6.0625 1.9375 C-6.0625 1.2775 -6.0625 0.6175 -6.0625 -0.0625 C-3.474796 -1.356352 -2.7120155 -0.87530659 0 0 Z "
      fill="#2e3f5d" transform="translate(599.0625,354.0625)" />
   <path
      d="M0 0 C0.66 0.33 1.32 0.66 2 1 C-7.57 10.57 -17.14 20.14 -27 30 C-27 27 -27 27 -25.2421875 24.984375 C-24.46101562 24.24703125 -23.67984375 23.5096875 -22.875 22.75 C-20.07630185 20.05172316 -17.3967513 17.38605007 -14.9375 14.375 C-12.19260265 11.07959399 -9.09793129 8.35269443 -5.8359375 5.578125 C-3.7854109 3.81554469 -1.87227771 1.95028928 0 0 Z "
      fill="#2e3f5d" transform="translate(234,195)" />
   <path
      d="M0 0 C0.71929688 0.29003906 1.43859375 0.58007812 2.1796875 0.87890625 C2.90414062 1.16636719 3.62859375 1.45382812 4.375 1.75 C4.92929687 1.97816406 5.48359375 2.20632813 6.0546875 2.44140625 C5.7246875 3.76140625 5.3946875 5.08140625 5.0546875 6.44140625 C0.3046875 5.56640625 0.3046875 5.56640625 -1.9453125 4.44140625 C-1.9453125 3.78140625 -1.9453125 3.12140625 -1.9453125 2.44140625 C-2.6053125 2.44140625 -3.2653125 2.44140625 -3.9453125 2.44140625 C-3.9453125 1.78140625 -3.9453125 1.12140625 -3.9453125 0.44140625 C-1.9453125 -0.55859375 -1.9453125 -0.55859375 0 0 Z "
      fill="#2e3f5d" transform="translate(596.9453125,353.55859375)" />
   <path
      d="M0 0 C0.66 0.33 1.32 0.66 2 1 C0.87895467 2.31587941 -0.24696965 3.62760353 -1.375 4.9375 C-2.00148438 5.66839844 -2.62796875 6.39929688 -3.2734375 7.15234375 C-5 9 -5 9 -7 10 C-5.33248852 6.05860922 -2.77289351 3.2107188 0 0 Z "
      fill="#2e3f5d" transform="translate(533,366)" />
   <path
      d="M0 0 C2.475 0.495 2.475 0.495 5 1 C5.33 2.32 5.66 3.64 6 5 C5.01 5 4.02 5 3 5 C1.3125 2.5 1.3125 2.5 0 0 Z "
      fill="#2e3f5d" transform="translate(414,673)" />
</svg>