<?xml version="1.0" encoding="UTF-8"?>
<!DOCTYPE svg PUBLIC "-//W3C//DTD SVG 1.1//EN" "http://www.w3.org/Graphics/SVG/1.1/DTD/svg11.dtd">
<svg xmlns="http://www.w3.org/2000/svg" version="1.1" width="312px" height="353px" style="shape-rendering:geometricPrecision; text-rendering:geometricPrecision; image-rendering:optimizeQuality; fill-rule:evenodd; clip-rule:evenodd" xmlns:xlink="http://www.w3.org/1999/xlink">
<g><path style="opacity:1" fill="#25cefc" d="M 235.5,54.5 C 232.5,54.1667 231.167,55.5 231.5,58.5C 218.089,66.2742 205.922,64.6075 195,53.5C 186.527,39.1634 188.693,26.33 201.5,15C 217.52,7.44384 230.353,10.9438 240,25.5C 244.474,36.2624 242.974,45.929 235.5,54.5 Z"/></g>
<g><path style="opacity:1" fill="#86d6ed" d="M 137.5,27.5 C 135.858,25.9192 133.858,25.2525 131.5,25.5C 131.685,23.8042 132.519,22.4709 134,21.5C 135.442,23.3911 136.609,25.3911 137.5,27.5 Z"/></g>
<g><path style="opacity:1" fill="#18cefd" d="M 131.5,25.5 C 133.858,25.2525 135.858,25.9192 137.5,27.5C 140.221,30.894 142.554,34.5606 144.5,38.5C 144.128,41.9229 145.461,44.4229 148.5,46C 148.165,47.5026 148.165,48.836 148.5,50C 150.193,50.8466 151.86,51.6799 153.5,52.5C 157.527,57.8747 161.193,63.5414 164.5,69.5C 164.427,71.0269 165.094,72.0269 166.5,72.5C 166.427,74.0269 167.094,75.0269 168.5,75.5C 169.401,76.2905 170.068,77.2905 170.5,78.5C 170.557,79.609 170.89,80.609 171.5,81.5C 149.556,99.3551 144.223,121.355 155.5,147.5C 155.342,150.522 156.675,152.522 159.5,153.5C 176.029,171.141 195.696,175.808 218.5,167.5C 220.5,167.5 222.5,167.5 224.5,167.5C 238.621,193.306 245.121,220.639 244,249.5C 243.616,255.365 242.449,261.031 240.5,266.5C 238.72,267.99 238.054,269.99 238.5,272.5C 235.651,282.534 230.984,291.534 224.5,299.5C 223.5,299.5 222.5,299.5 221.5,299.5C 221.649,300.552 221.483,301.552 221,302.5C 220.667,302.167 220.333,301.833 220,301.5C 217.493,304.207 214.66,306.207 211.5,307.5C 211.5,308.5 211.5,309.5 211.5,310.5C 209.403,310.003 207.57,309.67 206,309.5C 205.251,310.635 205.417,311.635 206.5,312.5C 208.45,311.848 209.45,312.848 209.5,315.5C 208.07,315.421 206.736,315.754 205.5,316.5C 204.808,315.975 204.308,315.308 204,314.5C 202.299,318.001 200.466,321.335 198.5,324.5C 164.304,346.449 127.97,350.283 89.5,336C 80.8236,332.13 72.8236,327.297 65.5,321.5C 65.0269,320.094 64.0269,319.427 62.5,319.5C 61.5,319.167 60.8333,318.5 60.5,317.5C 60.0269,316.094 59.0269,315.427 57.5,315.5C 55.1667,313.833 53.1667,311.833 51.5,309.5C 50.2504,306.994 49.5838,304.327 49.5,301.5C 47.7839,301.371 46.1172,301.038 44.5,300.5C 43.5,300.167 42.8333,299.5 42.5,298.5C 42.5246,295.821 43.858,294.488 46.5,294.5C 46.3739,292.8 45.7073,291.3 44.5,290C 45.4287,286.504 45.262,283.004 44,279.5C 43.0201,281.059 42.1867,282.726 41.5,284.5C 35.1376,282.331 32.3043,277.998 33,271.5C 34.5874,272.727 35.9207,272.394 37,270.5C 38.2362,271.399 39.0696,272.566 39.5,274C 36.5652,280.519 37.3986,281.019 42,275.5C 42.3076,276.308 42.8076,276.975 43.5,277.5C 44.2621,276.372 44.9288,275.205 45.5,274C 42.1039,272.29 40.6039,269.457 41,265.5C 39.0761,263.991 37.9094,261.991 37.5,259.5C 35.4503,258.337 33.4503,258.504 31.5,260C 33,261.5 34.5,263 36,264.5C 36.6345,267.548 35.3012,269.215 32,269.5C 30.7387,269.241 29.7387,268.574 29,267.5C 27.963,262.019 26.6297,256.685 25,251.5C 24.5003,243.507 24.3336,235.507 24.5,227.5C 26.2142,209.311 31.0475,191.978 39,175.5C 58.1819,139.107 79.3485,104.107 102.5,70.5C 103.906,70.0269 104.573,69.0269 104.5,67.5C 106.446,63.5606 108.779,59.894 111.5,56.5C 112.906,56.0269 113.573,55.0269 113.5,53.5C 119.113,43.893 125.113,34.5597 131.5,25.5 Z M 152.5,203.5 C 152.927,206.01 153.593,208.343 154.5,210.5C 154.575,213.206 154.908,215.873 155.5,218.5C 155.424,224.809 155.424,230.809 155.5,236.5C 154.547,244.609 152.214,252.276 148.5,259.5C 147.094,259.973 146.427,260.973 146.5,262.5C 143.808,264.862 141.141,267.196 138.5,269.5C 126.192,275.087 113.525,275.921 100.5,272C 95.9438,269.894 91.9438,267.061 88.5,263.5C 87.0664,260.953 85.3998,258.619 83.5,256.5C 82.1652,252.828 80.8319,249.162 79.5,245.5C 79.9382,245.565 80.2716,245.399 80.5,245C 79.9011,243.378 79.2344,241.878 78.5,240.5C 77.3899,229.477 77.7232,218.477 79.5,207.5C 80.4582,205.698 81.1249,203.698 81.5,201.5C 82.8333,198.833 84.1667,196.167 85.5,193.5C 88.8744,189.124 92.8744,185.458 97.5,182.5C 112.367,177.574 126.7,178.741 140.5,186C 145.923,190.912 149.923,196.745 152.5,203.5 Z M 183.5,270.5 C 181.767,271.008 181.434,271.841 182.5,273C 184.712,273.789 186.712,273.622 188.5,272.5C 190.5,272.5 192.5,272.5 194.5,272.5C 197.045,273.427 199.378,273.427 201.5,272.5C 202.452,274.045 202.785,275.712 202.5,277.5C 202.5,279.833 202.5,282.167 202.5,284.5C 188.815,284.232 174.981,284.566 161,285.5C 160.501,281.179 160.334,276.846 160.5,272.5C 165.23,268.773 169.23,264.44 172.5,259.5C 175.243,257.761 177.243,255.427 178.5,252.5C 183.375,249.083 185.875,244.416 186,238.5C 183.185,235.504 179.685,234.171 175.5,234.5C 171.73,234.694 168.063,235.36 164.5,236.5C 163.662,236.158 163.328,235.492 163.5,234.5C 164.236,231.305 164.903,227.971 165.5,224.5C 176.128,221.342 186.461,221.176 196.5,224C 204.91,228.895 207.076,235.728 203,244.5C 197.822,254.175 191.322,262.842 183.5,270.5 Z"/></g>
<g><path style="opacity:1" fill="#67d0f4" d="M 144.5,38.5 C 147.996,42.8187 150.996,47.4854 153.5,52.5C 151.86,51.6799 150.193,50.8466 148.5,50C 148.165,48.836 148.165,47.5026 148.5,46C 145.461,44.4229 144.128,41.9229 144.5,38.5 Z"/></g>
<g><path style="opacity:0.388" fill="#b9e8f3" d="M 113.5,53.5 C 113.573,55.0269 112.906,56.0269 111.5,56.5C 111.427,54.9731 112.094,53.9731 113.5,53.5 Z"/></g>
<g><path style="opacity:1" fill="#88d9eb" d="M 235.5,54.5 C 234.5,56.1667 233.167,57.5 231.5,58.5C 231.167,55.5 232.5,54.1667 235.5,54.5 Z"/></g>
<g><path style="opacity:1" fill="#27cefb" d="M 264.5,103.5 C 264.027,102.094 263.027,101.427 261.5,101.5C 252.749,92.1609 251.916,82.1609 259,71.5C 270.897,61.2335 282.231,61.5669 293,72.5C 301.227,89.8177 296.227,101.484 278,107.5C 273.141,107.093 268.641,105.76 264.5,103.5 Z"/></g>
<g><path style="opacity:0.439" fill="#b1e4f3" d="M 104.5,67.5 C 104.573,69.0269 103.906,70.0269 102.5,70.5C 102.427,68.9731 103.094,67.9731 104.5,67.5 Z"/></g>
<g><path style="opacity:0.412" fill="#b6e5f8" d="M 164.5,69.5 C 165.906,69.9731 166.573,70.9731 166.5,72.5C 165.094,72.0269 164.427,71.0269 164.5,69.5 Z"/></g>
<g><path style="opacity:0.31" fill="#beeaf6" d="M 166.5,72.5 C 167.906,72.9731 168.573,73.9731 168.5,75.5C 167.094,75.0269 166.427,74.0269 166.5,72.5 Z"/></g>
<g><path style="opacity:0.184" fill="#d3f0f8" d="M 170.5,78.5 C 172.382,79.221 172.715,80.221 171.5,81.5C 170.89,80.609 170.557,79.609 170.5,78.5 Z"/></g>
<g><path style="opacity:1" fill="#21cefc" d="M 190.5,91.5 C 212.931,89.7665 226.264,99.9332 230.5,122C 229.225,138.266 220.892,148.932 205.5,154C 185.218,156.616 172.385,148.116 167,128.5C 165.243,110.003 173.076,97.6699 190.5,91.5 Z"/></g>
<g><path style="opacity:0.451" fill="#b4e4f4" d="M 261.5,101.5 C 263.027,101.427 264.027,102.094 264.5,103.5C 262.973,103.573 261.973,102.906 261.5,101.5 Z"/></g>
<g><path style="opacity:0.953" fill="#8ad7f3" d="M 155.5,147.5 C 157.326,149.147 158.66,151.147 159.5,153.5C 156.675,152.522 155.342,150.522 155.5,147.5 Z"/></g>
<g><path style="opacity:1" fill="#7ed9ee" d="M 224.5,167.5 C 222.5,167.5 220.5,167.5 218.5,167.5C 219.848,166.399 221.348,165.399 223,164.5C 224.039,165.244 224.539,166.244 224.5,167.5 Z"/></g>
<g><path style="opacity:1" fill="#6ed3f1" d="M 97.5,182.5 C 92.8744,185.458 88.8744,189.124 85.5,193.5C 85.423,190.491 86.7563,188.324 89.5,187C 88.6634,185.989 88.33,184.822 88.5,183.5C 89.8221,183.33 90.9887,183.663 92,184.5C 93.5843,183.139 95.4176,182.472 97.5,182.5 Z"/></g>
<g><path style="opacity:1" fill="#92ddee" d="M 81.5,201.5 C 81.1249,203.698 80.4582,205.698 79.5,207.5C 79.0254,204.918 79.6921,202.918 81.5,201.5 Z"/></g>
<g><path style="opacity:1" fill="#2ccefc" d="M 130.5,240.5 C 129.532,242.607 129.198,244.941 129.5,247.5C 129.443,248.609 129.11,249.609 128.5,250.5C 126.142,252.872 123.475,255.039 120.5,257C 117.672,256.905 114.672,257.072 111.5,257.5C 108.572,256.409 106.406,254.409 105,251.5C 100.719,235.65 100.385,219.983 104,204.5C 107.49,196.175 113.656,193.342 122.5,196C 124.286,196.785 125.786,197.951 127,199.5C 129.503,204.061 131.003,208.894 131.5,214C 131.802,222.707 131.469,231.541 130.5,240.5 Z"/></g>
<g><path style="opacity:1" fill="#9edff7" d="M 152.5,203.5 C 153.117,203.611 153.617,203.944 154,204.5C 154.495,206.473 154.662,208.473 154.5,210.5C 153.593,208.343 152.927,206.01 152.5,203.5 Z"/></g>
<g><path style="opacity:0.363" fill="#a4e0f1" d="M 155.5,218.5 C 156.833,224.5 156.833,230.5 155.5,236.5C 155.424,230.809 155.424,224.809 155.5,218.5 Z"/></g>
<g><path style="opacity:0.196" fill="#d1f1fc" d="M 163.5,234.5 C 163.328,235.492 163.662,236.158 164.5,236.5C 163.698,237.885 163.031,237.718 162.5,236C 162.57,235.235 162.903,234.735 163.5,234.5 Z"/></g>
<g><path style="opacity:0.8" fill="#a8e5f8" d="M 130.5,240.5 C 130.938,240.435 131.272,240.601 131.5,241C 130.883,243.277 130.216,245.444 129.5,247.5C 129.198,244.941 129.532,242.607 130.5,240.5 Z"/></g>
<g><path style="opacity:0.718" fill="#c0edf6" d="M 78.5,240.5 C 79.2344,241.878 79.9011,243.378 80.5,245C 80.2716,245.399 79.9382,245.565 79.5,245.5C 78.5489,244.081 78.2155,242.415 78.5,240.5 Z"/></g>
<g><path style="opacity:1" fill="#7ed8f2" d="M 128.5,250.5 C 127.752,254.417 125.418,256.917 121.5,258C 119.206,259.134 117.039,259.634 115,259.5C 113.698,258.915 112.531,258.249 111.5,257.5C 114.672,257.072 117.672,256.905 120.5,257C 123.475,255.039 126.142,252.872 128.5,250.5 Z"/></g>
<g><path style="opacity:1" fill="#72d1f0" d="M 178.5,252.5 C 177.243,255.427 175.243,257.761 172.5,259.5C 173.054,255.945 175.054,253.612 178.5,252.5 Z"/></g>
<g><path style="opacity:1" fill="#51d3f9" d="M 24.5,227.5 C 24.3336,235.507 24.5003,243.507 25,251.5C 26.6297,256.685 27.963,262.019 29,267.5C 29.7387,268.574 30.7387,269.241 32,269.5C 35.3012,269.215 36.6345,267.548 36,264.5C 34.5,263 33,261.5 31.5,260C 33.4503,258.504 35.4503,258.337 37.5,259.5C 37.9094,261.991 39.0761,263.991 41,265.5C 40.6039,269.457 42.1039,272.29 45.5,274C 44.9288,275.205 44.2621,276.372 43.5,277.5C 42.8076,276.975 42.3076,276.308 42,275.5C 37.3986,281.019 36.5652,280.519 39.5,274C 39.0696,272.566 38.2362,271.399 37,270.5C 35.9207,272.394 34.5874,272.727 33,271.5C 32.3043,277.998 35.1376,282.331 41.5,284.5C 42.1867,282.726 43.0201,281.059 44,279.5C 45.262,283.004 45.4287,286.504 44.5,290C 45.7073,291.3 46.3739,292.8 46.5,294.5C 43.858,294.488 42.5246,295.821 42.5,298.5C 27.2549,277.186 21.2549,253.52 24.5,227.5 Z"/></g>
<g><path style="opacity:0.471" fill="#b1e3f4" d="M 148.5,259.5 C 148.443,260.609 148.11,261.609 147.5,262.5C 147.167,262.5 146.833,262.5 146.5,262.5C 146.427,260.973 147.094,259.973 148.5,259.5 Z"/></g>
<g><path style="opacity:1" fill="#71d5f3" d="M 83.5,256.5 C 85.3998,258.619 87.0664,260.953 88.5,263.5C 84.1996,263.185 82.533,260.851 83.5,256.5 Z"/></g>
<g><path style="opacity:1" fill="#3cd1f8" d="M 172.5,259.5 C 169.23,264.44 165.23,268.773 160.5,272.5C 158.469,269.471 155.803,267.138 152.5,265.5C 151.259,266.037 150.092,266.704 149,267.5C 146.117,264.681 143.95,265.181 142.5,269C 141.207,269.49 139.873,269.657 138.5,269.5C 141.141,267.196 143.808,264.862 146.5,262.5C 146.833,262.5 147.167,262.5 147.5,262.5C 148.979,266.47 149.646,266.137 149.5,261.5C 152.522,261.572 154.688,260.238 156,257.5C 156.124,259.936 155.624,262.269 154.5,264.5C 155.833,264.5 157.167,264.5 158.5,264.5C 158.5,265.5 158.5,266.5 158.5,267.5C 159.978,267.762 161.311,267.429 162.5,266.5C 161.675,265.614 160.675,265.281 159.5,265.5C 159.464,257.864 160.797,257.531 163.5,264.5C 166.124,263.924 166.791,262.59 165.5,260.5C 166,260.167 166.5,259.833 167,259.5C 168.69,258.851 170.523,258.851 172.5,259.5 Z"/></g>
<g><path style="opacity:1" fill="#9fe0f4" d="M 240.5,266.5 C 240.405,268.786 239.738,270.786 238.5,272.5C 238.054,269.99 238.72,267.99 240.5,266.5 Z"/></g>
<g><path style="opacity:0.698" fill="#88dffb" d="M 194.5,272.5 C 197.287,271.523 200.287,271.19 203.5,271.5C 203.795,273.735 203.461,275.735 202.5,277.5C 202.785,275.712 202.452,274.045 201.5,272.5C 199.378,273.427 197.045,273.427 194.5,272.5 Z"/></g>
<g><path style="opacity:0.051" fill="#e2f4f9" d="M 183.5,270.5 C 184.552,272.256 186.219,272.923 188.5,272.5C 186.712,273.622 184.712,273.789 182.5,273C 181.434,271.841 181.767,271.008 183.5,270.5 Z"/></g>
<g><path style="opacity:1" fill="#67d6ef" d="M 44.5,300.5 C 46.1172,301.038 47.7839,301.371 49.5,301.5C 49.5838,304.327 50.2504,306.994 51.5,309.5C 48.7915,306.792 46.4581,303.792 44.5,300.5 Z"/></g>
<g><path style="opacity:1" fill="#4fcff4" d="M 224.5,299.5 C 220.205,305.463 215.205,310.796 209.5,315.5C 209.45,312.848 208.45,311.848 206.5,312.5C 205.417,311.635 205.251,310.635 206,309.5C 207.57,309.67 209.403,310.003 211.5,310.5C 211.5,309.5 211.5,308.5 211.5,307.5C 214.66,306.207 217.493,304.207 220,301.5C 220.333,301.833 220.667,302.167 221,302.5C 221.483,301.552 221.649,300.552 221.5,299.5C 222.5,299.5 223.5,299.5 224.5,299.5 Z"/></g>
<g><path style="opacity:1" fill="#68d3f4" d="M 209.5,315.5 C 206.149,318.848 202.482,321.848 198.5,324.5C 200.466,321.335 202.299,318.001 204,314.5C 204.308,315.308 204.808,315.975 205.5,316.5C 206.736,315.754 208.07,315.421 209.5,315.5 Z"/></g>
<g><path style="opacity:0.537" fill="#c5eff8" d="M 57.5,315.5 C 59.0269,315.427 60.0269,316.094 60.5,317.5C 58.9731,317.573 57.9731,316.906 57.5,315.5 Z"/></g>
<g><path style="opacity:0.427" fill="#b9eaf6" d="M 62.5,319.5 C 64.0269,319.427 65.0269,320.094 65.5,321.5C 63.9731,321.573 62.9731,320.906 62.5,319.5 Z"/></g>
</svg>
