<?xml version="1.0" encoding="UTF-8"?>
<svg version="1.1" xmlns="http://www.w3.org/2000/svg" width="500" height="500">
   <path
      d="M0 0 C0.67289062 -0.01160156 1.34578125 -0.02320313 2.0390625 -0.03515625 C7.11032854 -0.00578598 10.54238041 1.18101536 15 3.375 C15 4.035 15 4.695 15 5.375 C15.61875 5.519375 16.2375 5.66375 16.875 5.8125 C19 6.375 19 6.375 21 7.375 C21 8.035 21 8.695 21 9.375 C21.66 9.375 22.32 9.375 23 9.375 C23 10.035 23 10.695 23 11.375 C23.66 11.375 24.32 11.375 25 11.375 C26.2890625 13.0546875 26.2890625 13.0546875 27.625 15.25 C28.07101562 15.96929687 28.51703125 16.68859375 28.9765625 17.4296875 C30 19.375 30 19.375 30 21.375 C29.22398437 21.3843457 28.44796875 21.39369141 27.6484375 21.40332031 C24.09833713 21.45733437 20.54951052 21.54092303 17 21.625 C15.77925781 21.63917969 14.55851562 21.65335938 13.30078125 21.66796875 C5.57118114 21.87687686 -0.59726668 22.35867863 -6.54663086 27.78588867 C-9.31427399 30.82364056 -10.715756 33.300836 -11 37.375 C-11.08507812 38.03371094 -11.17015625 38.69242188 -11.2578125 39.37109375 C-11.7285564 45.27585966 -10.15265007 48.77635564 -6.64453125 53.4921875 C-2.91007859 57.76773663 0.541166 58.61323602 6 59.375 C8.30795411 59.51674013 10.61849346 59.61982059 12.9296875 59.69140625 C14.86328125 59.75424805 14.86328125 59.75424805 16.8359375 59.81835938 C18.18228909 59.85816028 19.52864329 59.89787273 20.875 59.9375 C22.24480333 59.98075183 23.61459521 60.02436812 24.984375 60.06835938 C28.32282157 60.17415522 31.661339 60.27624372 35 60.375 C32.62051992 83.79865461 26.2576334 104.794062 17 126.375 C18.05520844 126.38530746 19.11041687 126.39561493 20.19760132 126.40623474 C30.17208594 126.50425433 40.14651215 126.60701355 50.12090111 126.71433926 C55.24806065 126.76935782 60.37522608 126.8227425 65.50244141 126.87231445 C70.45619947 126.92027079 75.40989386 126.97262185 80.36357498 127.02794075 C82.24765041 127.04822358 84.1317432 127.06695849 86.01585007 127.08407402 C114.38466124 127.3446912 114.38466124 127.3446912 122.72265625 134.9453125 C127.60864918 140.10741805 129.79495949 145.44017491 130.1640625 152.5234375 C129.79214845 164.79660111 123.66856247 170.83329409 115.60546875 179.4453125 C112.02924029 183.46655889 108.93011215 187.75536024 105.8125 192.13671875 C105.214375 192.87535156 104.61625 193.61398437 104 194.375 C103.34 194.375 102.68 194.375 102 194.375 C101.77570313 194.90867187 101.55140625 195.44234375 101.3203125 195.9921875 C99.56100682 199.16726581 97.24673354 201.77605261 94.875 204.5 C91.48360624 208.44363539 88.14662922 212.40491486 84.9375 216.5 C81.30606837 221.08941666 77.38755976 225.36742369 73.42578125 229.671875 C70.55513725 232.87072467 67.90884547 236.2050655 65.2578125 239.5859375 C61.91326265 243.71744025 58.3809378 247.68067978 54.87255859 251.6730957 C50.51516723 256.67600293 46.54701487 261.87001988 42.70703125 267.27734375 C42.14371094 267.96957031 41.58039063 268.66179687 41 269.375 C40.34 269.375 39.68 269.375 39 269.375 C38.7421875 269.93703125 38.484375 270.4990625 38.21875 271.078125 C36.85830223 273.64204579 35.27211038 275.82726365 33.5 278.125 C32.8915625 278.92421875 32.283125 279.7234375 31.65625 280.546875 C31.1096875 281.15015625 30.563125 281.7534375 30 282.375 C29.34 282.375 28.68 282.375 28 282.375 C27.690625 283.2103125 27.690625 283.2103125 27.375 284.0625 C24.08272595 289.59950636 19.28388955 292.12642203 13.28125 293.8671875 C5.26167726 295.65236636 -0.58838432 293.42684175 -8 290.375 C-8 289.715 -8 289.055 -8 288.375 C-9.32 287.715 -10.64 287.055 -12 286.375 C-12 285.715 -12 285.055 -12 284.375 C-12.66 284.375 -13.32 284.375 -14 284.375 C-18.52473068 276.55771976 -19.38582046 268.80395656 -17.48046875 259.96484375 C-15.16750639 253.68680307 -10.40148118 249.14828073 -5.859375 244.40625 C-2.49301723 240.88342142 0.53701748 237.11947464 3.58984375 233.32421875 C7.01286308 229.13559705 10.55335365 225.05053563 14.10327148 220.96923828 C16.83962276 217.87288463 16.83962276 217.87288463 19 214.375 C19.66 214.375 20.32 214.375 21 214.375 C21 213.385 21 212.395 21 211.375 C21.66 211.375 22.32 211.375 23 211.375 C23 210.715 23 210.055 23 209.375 C23.66 209.375 24.32 209.375 25 209.375 C25.37125 208.570625 25.37125 208.570625 25.75 207.75 C27.30652537 204.7926018 29.03435673 202.07775949 31 199.375 C31.66 199.375 32.32 199.375 33 199.375 C33 198.715 33 198.055 33 197.375 C33.66 197.375 34.32 197.375 35 197.375 C35.26296875 196.79234375 35.5259375 196.2096875 35.796875 195.609375 C37.05711551 193.26892833 38.45619689 191.58040699 40.25 189.625 C42.71384664 186.93511238 44.94865748 184.14733716 47.12792969 181.22558594 C47.93553741 180.14419342 47.93553741 180.14419342 48.75946045 179.04095459 C49.1688385 178.49118958 49.57821655 177.94142456 50 177.375 C48.80552246 177.38023682 47.61104492 177.38547363 46.38037109 177.39086914 C25.99661057 177.4718615 5.61061695 177.53627463 -14.76898193 177.05661011 C-16.36335808 177.01929064 -17.95780383 176.98482057 -19.55230713 176.95339966 C-38.00951744 176.57694683 -58.0063145 173.98497094 -72.0625 160.6875 C-75.08162858 157.08402395 -75.41099396 153.72442701 -75.3359375 149.0859375 C-74.15082396 139.52234685 -68.93421086 131.31647993 -63.8515625 123.359375 C-59.66872078 116.61741071 -57.11202557 109.18825761 -54.34375 101.78125 C-53.31154392 99.16472761 -52.21109148 96.65022198 -51.03125 94.1015625 C-48.86409118 89.26916426 -47.39319535 84.3514422 -46 79.25 C-45.7421875 78.32477539 -45.484375 77.39955078 -45.21875 76.44628906 C-44.47218576 73.75772458 -43.73532255 71.06665654 -43 68.375 C-42.649375 67.11429687 -42.29875 65.85359375 -41.9375 64.5546875 C-40.37593857 58.84197526 -38.93387757 53.12871973 -37.6328125 47.3515625 C-32.66142557 25.47321653 -32.66142557 25.47321653 -27 15.375 C-26.34 15.375 -25.68 15.375 -25 15.375 C-24.7525 14.3540625 -24.7525 14.3540625 -24.5 13.3125 C-19.74071765 3.99223873 -10.10501544 -0.1742244 0 0 Z "
      fill="#2e3f5d" transform="translate(299,191.625)" />
   <path
      d="M0 0 C7.30241915 6.94585572 11.58113268 14.82160248 12.17382812 24.97900391 C12.29291659 33.91969956 11.14997425 42.14171721 9.3125 50.875 C9.03970947 52.2192509 8.76807944 53.56373777 8.49755859 54.90844727 C7.81399925 58.28874821 7.1143902 61.66547085 6.40863037 65.04119873 C5.76177234 68.14196269 5.12588718 71.24497874 4.48828125 74.34765625 C3.34223898 79.90201562 2.17928596 85.45260718 1 91 C0.67 91 0.34 91 0 91 C-0.91304871 86.34499296 -1.14642094 81.83712257 -1.1328125 77.109375 C-1.13376923 76.36471985 -1.13472595 75.6200647 -1.13571167 74.85284424 C-1.13638927 73.28291743 -1.13456443 71.71298776 -1.13037109 70.14306641 C-1.12504734 67.77109284 -1.13031468 65.39931125 -1.13671875 63.02734375 C-1.13968516 55.9781734 -1.06964209 49.00094871 -0.23583984 41.99072266 C0.61480195 34.81046057 1.18828732 27.15924605 -3 21 C-8.43100117 16.40768451 -13.60086048 14.11737146 -20.74609375 14.609375 C-26.54547404 15.61446691 -30.27714334 18.5728191 -34 23 C-40.63610581 36.64231601 -39.37009218 53.2340531 -39.3125 68.0625 C-39.31034485 69.0602243 -39.3081897 70.05794861 -39.30596924 71.08590698 C-39.25562112 85.60377216 -38.81887918 99.72071803 -36 114 C-35.80132324 115.0734668 -35.60264648 116.14693359 -35.39794922 117.25292969 C-32.2663922 134.01555623 -27.79393493 149.97582019 -22 166 C-21.46625241 167.52953125 -20.93361334 169.05945002 -20.40234375 170.58984375 C-14.31071166 187.99696846 -14.31071166 187.99696846 -2.140625 201.3046875 C1.01889652 202.33095544 3.94155247 202.18626755 7.25 202.125 C8.51328125 202.10695313 9.7765625 202.08890625 11.078125 202.0703125 C12.04234375 202.04710937 13.0065625 202.02390625 14 202 C22.58423671 244.23655116 19.20873933 292.07292132 6 333 C5.59124488 334.35601822 5.18514716 335.71283939 4.78125 337.0703125 C-2.22557847 360.43088519 -2.22557847 360.43088519 -10.33203125 365.44140625 C-18.78427684 369.88928961 -24.81628751 370.55767888 -34 368 C-37.375 366.5625 -37.375 366.5625 -40 365 C-40.7425 364.566875 -41.485 364.13375 -42.25 363.6875 C-44.60636743 361.41528855 -45.16842912 359.11839081 -46 356 C-46.66 356 -47.32 356 -48 356 C-50.66377566 349.84001878 -51.23083958 342.92905699 -49.21362305 336.48974609 C-48.87886963 335.65523926 -48.54411621 334.82073242 -48.19921875 333.9609375 C-45.81649144 327.68377479 -44.09214061 321.31455798 -42.4375 314.8125 C-41.98080933 313.02585937 -41.98080933 313.02585937 -41.51489258 311.203125 C-39.32232834 302.51089945 -37.31542951 293.87451742 -36 285 C-35.89848633 284.35450195 -35.79697266 283.70900391 -35.69238281 283.04394531 C-30.38482368 248.13460525 -34.51112235 212.3968368 -43.43383789 178.49389648 C-44 176 -44 176 -44 173 C-44.78375 172.95875 -45.5675 172.9175 -46.375 172.875 C-55.22210199 170.73949262 -61.28773333 165.61889844 -66 158 C-66.50402344 157.23816406 -67.00804688 156.47632813 -67.52734375 155.69140625 C-69.26295835 152.51942095 -70.18557237 149.49141607 -71.125 146 C-71.45757812 144.80375 -71.79015625 143.6075 -72.1328125 142.375 C-77.42022863 118.72787508 -76.34391107 87.52549355 -71 64 C-70.68603271 62.61288818 -70.68603271 62.61288818 -70.36572266 61.19775391 C-65.67209054 41.06462988 -60.66648402 19.6079378 -45 5 C-44.34 5 -43.68 5 -43 5 C-43 4.34 -43 3.68 -43 3 C-40.81855776 1.84120336 -38.63096983 0.69812622 -36.4375 -0.4375 C-35.82841797 -0.76298828 -35.21933594 -1.08847656 -34.59179688 -1.42382812 C-24.01759396 -6.85079999 -9.54226853 -7.73445593 0 0 Z "
      fill="#2e3f5d" transform="translate(74,116)" />
   <path
      d="M0 0 C0 0.66 0 1.32 0 2 C1.08099976 2.07516846 1.08099976 2.07516846 2.18383789 2.15185547 C5.47732031 2.38523311 8.76986129 2.63001744 12.0625 2.875 C13.19623047 2.95363281 14.32996094 3.03226563 15.49804688 3.11328125 C21.27784692 3.5514002 26.51436353 4.11519157 32 6 C32.97324219 6.30679687 33.94648438 6.61359375 34.94921875 6.9296875 C35.85285156 7.24164062 36.75648438 7.55359375 37.6875 7.875 C38.59886719 8.18179688 39.51023437 8.48859375 40.44921875 8.8046875 C43.3289354 10.15414125 44.98362053 11.55088156 47 14 C47.6875 17.375 47.6875 17.375 47 21 C42.56191122 27.53299082 34.30675765 29.44282214 27 31 C7.82335552 33.73772521 -13.63074777 33.48326549 -32 27 C-18.3638378 33.88577836 -5.18178477 37.90235008 10.05078125 39.60546875 C13 40 13 40 15 41 C13.60603712 54.10325103 8.2245814 62.76037122 -1.8125 71.375 C-11.9814573 79.13098438 -23.97407776 80.97696686 -36.4453125 79.76171875 C-43.63827253 78.61685855 -49.65440541 75.46718055 -56 72 C-56 71.34 -56 70.68 -56 70 C-56.74121094 69.77441406 -57.48242188 69.54882812 -58.24609375 69.31640625 C-65.2576167 65.96479882 -69.41751644 56.90864889 -72.30859375 49.97265625 C-75.80810671 39.98817013 -75.42627959 26.98136107 -71.19140625 17.31640625 C-70.79824219 16.55199219 -70.40507813 15.78757812 -70 15 C-69.45666016 13.93072266 -69.45666016 13.93072266 -68.90234375 12.83984375 C-62.9453443 2.35956336 -53.25372938 -5.22534968 -41.8125 -8.875 C-25.76664114 -12.69869403 -13.25743797 -8.83829198 0 0 Z "
      fill="#2e3f5d" transform="translate(105,24)" />
   <path
      d="M0 0 C4.95058357 3.47878846 8.80662779 6.66662821 11.8671875 11.921875 C13.94579699 15.39620787 15.25471188 16.61836272 19.1796875 17.671875 C20.035625 17.86652344 20.8915625 18.06117188 21.7734375 18.26171875 C32.83556678 21.18736084 47.58680011 28.12009153 53.7421875 38.046875 C54.1796875 41.609375 54.1796875 41.609375 53.7421875 45.046875 C50.63069284 48.38885074 46.34203088 49.87995367 41.859375 50.34765625 C19.46022682 50.42861703 -2.78557716 45.17188432 -21.2578125 32.046875 C-22.2478125 31.551875 -22.2478125 31.551875 -23.2578125 31.046875 C-23.2578125 31.706875 -23.2578125 32.366875 -23.2578125 33.046875 C-22.5978125 33.046875 -21.9378125 33.046875 -21.2578125 33.046875 C-21.2578125 33.706875 -21.2578125 34.366875 -21.2578125 35.046875 C-20.5978125 35.046875 -19.9378125 35.046875 -19.2578125 35.046875 C-18.23676699 36.02537695 -17.2372004 37.02667927 -16.2578125 38.046875 C-15.2678125 38.541875 -15.2678125 38.541875 -14.2578125 39.046875 C-14.2578125 39.706875 -14.2578125 40.366875 -14.2578125 41.046875 C-13.52175781 41.32144531 -12.78570312 41.59601563 -12.02734375 41.87890625 C-9.43784333 42.97095226 -7.29710222 44.20968007 -4.9453125 45.734375 C1.91851976 49.95266341 9.33047775 52.93873865 16.7421875 56.046875 C14.00613515 65.91671831 5.29864846 73.74666195 -3.2578125 79.046875 C-14.32219059 84.52065481 -26.40762473 85.35999642 -38.2578125 82.046875 C-50.90602229 77.37501372 -60.47678893 69.28108339 -66.13671875 57.00390625 C-70.12419611 46.48641371 -71.24942644 34.25991035 -67.359375 23.48046875 C-61.61161461 10.78240236 -53.98988813 2.02428841 -41.2578125 -3.953125 C-27.60282344 -8.06505901 -12.38719774 -7.42637754 0 0 Z "
      fill="#2e3f5d" transform="translate(363.2578125,109.953125)" />
   <path
      d="M0 0 C0.79673929 -0.00297112 1.59347857 -0.00594224 2.41436148 -0.0090034 C5.09286123 -0.01769786 7.77131634 -0.01919926 10.4498291 -0.02069092 C12.36656286 -0.02531844 14.2832957 -0.03034301 16.20002747 -0.03573608 C21.41269457 -0.04886558 26.6253488 -0.05530574 31.83802986 -0.05974674 C35.09194742 -0.06267566 38.34586144 -0.06678005 41.59977722 -0.07125092 C51.77285512 -0.08492526 61.94592495 -0.09459309 72.1190114 -0.09845281 C83.87736737 -0.10293814 95.63560736 -0.12050835 107.39392805 -0.1494534 C116.47421748 -0.17103344 125.55447418 -0.18115506 134.63478899 -0.18249393 C140.06249477 -0.1835443 145.49009151 -0.1895016 150.91777039 -0.20731354 C156.01982032 -0.22373145 161.1216785 -0.22598045 166.22374535 -0.21717453 C168.09950968 -0.21640086 169.97528406 -0.22078998 171.85102272 -0.23063278 C174.40522672 -0.24325327 176.9587413 -0.23753008 179.51293945 -0.22705078 C180.26088949 -0.23510719 181.00883952 -0.24316359 181.77945471 -0.25146413 C184.71061881 -0.22319908 186.75321002 -0.20236658 189.21700287 1.47591019 C190.85543475 4.09958385 190.63275309 6.13017496 190.25646973 9.14044189 C188.88146973 11.01544189 188.88146973 11.01544189 187.25646973 12.14044189 C186.59646973 12.14044189 185.93646973 12.14044189 185.25646973 12.14044189 C185.25646973 12.80044189 185.25646973 13.46044189 185.25646973 14.14044189 C184.26646973 14.14044189 183.27646973 14.14044189 182.25646973 14.14044189 C182.25646973 14.80044189 182.25646973 15.46044189 182.25646973 16.14044189 C175.94948177 19.66807923 169.5738084 23.05506351 163.13146973 26.32794189 C162.48758301 26.66052002 161.84369629 26.99309814 161.18029785 27.33575439 C151.16873654 32.37696525 142.71052854 33.57777442 131.48449707 33.51275635 C130.00685877 33.51518825 128.52922212 33.51891142 127.05158997 33.52381897 C123.06202174 33.53317552 119.07270109 33.52384779 115.08315229 33.51048684 C110.89707907 33.49911943 106.7110171 33.50328382 102.52493286 33.50523376 C95.49920638 33.50611488 88.47357674 33.49507304 81.44787598 33.47662354 C73.33564791 33.45544224 65.22356144 33.45195065 57.11131132 33.45818549 C49.29073753 33.4638874 41.47021339 33.4582248 33.64964676 33.44701195 C30.3284475 33.4423786 27.00727872 33.4414866 23.68607712 33.44359779 C19.77405974 33.44548667 15.86218573 33.4373309 11.95020103 33.4215374 C10.51796372 33.41730922 9.08571182 33.41643409 7.65347099 33.4192276 C-7.98779308 33.44509881 -7.98779308 33.44509881 -14.49353027 29.45294189 C-18.19261848 25.65110123 -19.5578125 21.87380774 -20.11853027 16.64044189 C-19.52470414 11.09806468 -17.98944643 6.9410111 -13.74353027 3.26544189 C-9.14422804 0.00760281 -5.43265614 -0.0062936 0 0 Z "
      fill="#2e3f5d" transform="translate(309.7435302734375,215.85955810546875)" />
   <path
      d="M0 0 C3.78092731 1.86212694 6.41572647 4.45645293 8.30078125 8.2265625 C9.80088403 13.10641491 9.31437508 18.29183403 8.71337891 23.30200195 C7.71745121 31.81636743 7.70752338 40.33820185 7.69921875 48.8984375 C7.69787933 49.7141925 7.69653992 50.52994751 7.69515991 51.37042236 C7.70018306 65.533268 8.62315003 79.34664791 10.94921875 93.3359375 C11.06668457 94.06844727 11.18415039 94.80095703 11.30517578 95.55566406 C12.97930553 105.72715977 15.8757765 115.51851126 18.94921875 125.3359375 C19.24699219 126.31095215 19.24699219 126.31095215 19.55078125 127.30566406 C22.72654135 137.67452078 26.64634763 147.96567311 32.1328125 157.36328125 C34.04944919 161.99438903 33.43671901 167.44265367 32.94921875 172.3359375 C30.71185623 177.24092456 27.83871014 180.0658165 22.94921875 182.3359375 C18.1137418 183.11607008 13.35063397 183.46809642 8.828125 181.3359375 C0.16313046 174.54289056 -3.4419761 163.29050094 -7.05078125 153.3359375 C-7.7771775 151.48728874 -8.50359291 149.63864741 -9.23071289 147.7902832 C-24.81924564 107.57558625 -29.16073513 63.40051251 -25.30078125 20.5859375 C-25.20845215 19.46433228 -25.20845215 19.46433228 -25.11425781 18.32006836 C-24.43973316 12.32001764 -22.45926695 6.86011465 -18.26171875 2.4609375 C-12.36241183 -1.15395695 -6.69374905 -2.16749969 0 0 Z "
      fill="#2e3f5d" transform="translate(63.05078125,133.6640625)" />
   <path
      d="M0 0 C4.18439564 2.09219782 5.17590429 3.44970825 8 7 C9.10664305 7.9794738 10.2333376 8.9365786 11.375 9.875 C15.02918141 12.90568177 18.0230317 16.31422972 21 20 C19.54758264 23.33234574 17.7149914 25.54225606 15.15625 28.109375 C14.40472656 28.86347656 13.65320313 29.61757813 12.87890625 30.39453125 C12.09386719 31.17183594 11.30882812 31.94914062 10.5 32.75 C9.71496094 33.54277344 8.92992187 34.33554687 8.12109375 35.15234375 C7.36957031 35.90128906 6.61804688 36.65023437 5.84375 37.421875 C5.15474609 38.10862305 4.46574219 38.79537109 3.75585938 39.50292969 C2 41 2 41 0 41 C0 35.72 0 30.44 0 25 C-21.45 25 -42.9 25 -65 25 C-65 22.36 -65 19.72 -65 17 C-57.66406777 16.01893364 -50.48536771 15.86934167 -43.08984375 15.90234375 C-41.88179581 15.9037587 -40.67374786 15.90517365 -39.42909241 15.90663147 C-35.59853563 15.91219605 -31.76803889 15.92474197 -27.9375 15.9375 C-25.32877689 15.94251958 -22.72005286 15.94708168 -20.11132812 15.95117188 C-13.74086254 15.96215388 -7.37044143 15.97939394 -1 16 C-0.67 10.72 -0.34 5.44 0 0 Z "
      fill="#2e3f5d" transform="translate(190,242)" />
   <path
      d="M0 0 C0.33 0 0.66 0 1 0 C1.33 3.3 1.66 6.6 2 10 C2.66 9.34 3.32 8.68 4 8 C3.88490339 9.41750563 3.75746342 10.83401169 3.625 12.25 C3.55539063 13.03890625 3.48578125 13.8278125 3.4140625 14.640625 C2.98492887 17.085877 2.21399362 18.84836903 1 21 C0.07907719 16.34462644 -0.12205997 11.85314567 -0.0625 7.125 C-0.05798828 6.43664062 -0.05347656 5.74828125 -0.04882812 5.0390625 C-0.03716336 3.35933665 -0.01923271 1.67965625 0 0 Z "
      fill="#2e3f5d" transform="translate(73,186)" />
   <path
      d="M0 0 C0 3.52599722 -0.53480434 3.97292161 -2.8125 6.5 C-3.59560547 7.38171875 -3.59560547 7.38171875 -4.39453125 8.28125 C-4.92433594 8.8484375 -5.45414062 9.415625 -6 10 C-6.51949219 10.5671875 -7.03898437 11.134375 -7.57421875 11.71875 C-9 13 -9 13 -11 13 C-11 12.34 -11 11.68 -11 11 C-10.34 11 -9.68 11 -9 11 C-8.814375 10.29875 -8.62875 9.5975 -8.4375 8.875 C-6.45179974 4.90359949 -3.46066724 2.6926582 0 0 Z "
      fill="#2e3f5d" transform="translate(283,196)" />
   <path
      d="M0 0 C0.33 1.32 0.66 2.64 1 4 C-4.75 9 -4.75 9 -7 9 C-7 8.34 -7 7.68 -7 7 C-6.34 7 -5.68 7 -5 7 C-5 6.34 -5 5.68 -5 5 C-4.34 5 -3.68 5 -3 5 C-2.690625 4.360625 -2.38125 3.72125 -2.0625 3.0625 C-1 1 -1 1 0 0 Z "
      fill="#2e3f5d" transform="translate(337,384)" />
   <path
      d="M0 0 C0.66 0.33 1.32 0.66 2 1 C-0.31 3.31 -2.62 5.62 -5 8 C-5 5 -5 5 -2.5 2.3125 C-1.675 1.549375 -0.85 0.78625 0 0 Z "
      fill="#2e3f5d" transform="translate(47,135)" />
</svg>